<svg id="svg" version="1.1" xmlns="http://www.w3.org/2000/svg" xmlns:xlink="http://www.w3.org/1999/xlink" width="400" height="400" viewBox="0, 0, 400,400"><g id="svgg"><path id="path0" d="M30.400 0.295 C 29.410 0.381,28.429 0.619,28.220 0.825 C 28.011 1.031,27.336 1.200,26.720 1.200 C 26.104 1.200,25.600 1.380,25.600 1.600 C 25.600 1.820,25.060 2.000,24.400 2.000 C 23.740 2.000,23.200 2.180,23.200 2.400 C 23.200 2.620,22.840 2.800,22.400 2.800 C 21.960 2.800,21.600 2.980,21.600 3.200 C 21.600 3.420,21.240 3.600,20.800 3.600 C 20.360 3.600,20.000 3.780,20.000 4.000 C 20.000 4.220,19.640 4.400,19.200 4.400 C 18.760 4.400,18.400 4.580,18.400 4.800 C 18.400 5.020,18.130 5.200,17.800 5.200 C 17.470 5.200,17.200 5.380,17.200 5.600 C 17.200 5.820,16.930 6.000,16.600 6.000 C 16.270 6.000,16.000 6.141,16.000 6.314 C 16.000 6.486,15.438 6.960,14.751 7.366 C 13.183 8.292,8.400 12.951,8.400 13.553 C 8.400 13.799,8.220 14.000,8.000 14.000 C 7.780 14.000,7.600 14.230,7.600 14.512 C 7.600 14.793,7.240 15.283,6.800 15.600 C 6.360 15.917,6.000 16.497,6.000 16.888 C 6.000 17.280,5.850 17.600,5.667 17.600 C 5.205 17.600,2.800 22.344,2.800 23.256 C 2.800 23.665,2.620 24.000,2.400 24.000 C 2.180 24.000,2.000 24.540,2.000 25.200 C 2.000 25.860,1.820 26.400,1.600 26.400 C 1.380 26.400,1.200 27.019,1.200 27.776 C 1.200 28.533,1.020 29.264,0.800 29.400 C 0.556 29.551,0.400 32.604,0.400 37.224 C 0.400 42.008,0.547 44.800,0.800 44.800 C 1.020 44.800,1.200 45.520,1.200 46.400 C 1.200 47.280,1.380 48.000,1.600 48.000 C 1.820 48.000,2.000 48.540,2.000 49.200 C 2.000 49.860,2.180 50.400,2.400 50.400 C 2.620 50.400,2.800 50.749,2.800 51.176 C 2.800 51.603,2.980 52.064,3.200 52.200 C 3.420 52.336,3.600 52.797,3.600 53.224 C 3.600 53.651,3.780 54.000,4.000 54.000 C 4.220 54.000,4.400 54.360,4.400 54.800 C 4.400 55.240,4.550 55.600,4.732 55.600 C 4.915 55.600,5.319 56.095,5.630 56.700 C 5.940 57.305,6.511 58.091,6.897 58.447 C 7.284 58.803,7.600 59.320,7.600 59.597 C 7.600 60.086,13.777 66.402,15.427 67.600 C 16.839 68.625,18.569 69.639,19.300 69.871 C 19.685 69.993,20.000 70.252,20.000 70.447 C 20.000 70.641,20.236 70.800,20.525 70.800 C 20.814 70.800,21.795 71.160,22.706 71.600 C 23.616 72.040,24.629 72.400,24.957 72.400 C 25.285 72.400,25.651 72.559,25.771 72.754 C 25.990 73.107,26.466 73.228,31.000 74.084 C 33.749 74.603,41.029 74.707,43.400 74.260 C 48.254 73.346,55.899 70.541,56.333 69.515 C 56.407 69.342,56.677 69.200,56.933 69.199 C 57.190 69.199,58.030 68.659,58.800 68.000 C 59.570 67.341,60.346 66.801,60.525 66.801 C 61.001 66.800,67.600 60.000,67.600 59.510 C 67.600 59.281,67.915 58.801,68.300 58.443 C 70.240 56.638,72.658 51.105,74.370 44.554 C 74.894 42.546,74.942 31.532,74.434 29.828 C 72.924 24.769,72.185 22.656,71.101 20.300 C 70.417 18.815,69.710 17.600,69.529 17.600 C 69.348 17.600,69.197 17.375,69.193 17.100 C 69.178 16.081,61.422 7.600,60.505 7.600 C 60.293 7.600,59.554 7.060,58.863 6.400 C 58.172 5.740,57.336 5.200,57.004 5.200 C 56.672 5.200,56.400 5.020,56.400 4.800 C 56.400 4.580,56.130 4.400,55.800 4.400 C 55.470 4.400,55.200 4.220,55.200 4.000 C 55.200 3.780,54.840 3.600,54.400 3.600 C 53.960 3.600,53.600 3.420,53.600 3.200 C 53.600 2.980,53.251 2.800,52.824 2.800 C 52.397 2.800,51.936 2.620,51.800 2.400 C 51.664 2.180,51.113 2.000,50.576 2.000 C 50.039 2.000,49.600 1.840,49.600 1.644 C 49.600 1.448,49.015 1.185,48.300 1.060 C 47.585 0.936,46.010 0.659,44.800 0.446 C 42.666 0.070,34.052 -0.020,30.400 0.295 M196.400 37.600 C 196.400 37.820,196.038 38.000,195.595 38.000 C 194.023 38.000,189.600 41.699,189.600 43.013 C 189.600 43.362,189.420 43.536,189.200 43.400 C 188.980 43.264,188.800 43.523,188.800 43.976 C 188.800 44.429,188.620 44.800,188.400 44.800 C 188.157 44.800,188.000 46.592,188.000 49.376 C 188.000 51.996,188.171 54.058,188.400 54.200 C 188.620 54.336,188.800 54.797,188.800 55.224 C 188.800 55.651,188.980 56.000,189.200 56.000 C 189.420 56.000,189.600 56.200,189.600 56.444 C 189.600 57.586,194.155 61.200,195.595 61.200 C 196.038 61.200,196.400 61.380,196.400 61.600 C 196.400 61.837,197.867 62.000,200.000 62.000 C 202.133 62.000,203.600 61.837,203.600 61.600 C 203.600 61.380,204.140 61.200,204.800 61.200 C 205.460 61.200,206.000 61.020,206.000 60.800 C 206.000 60.580,206.270 60.400,206.600 60.400 C 206.930 60.400,207.200 60.220,207.200 60.000 C 207.200 59.780,207.390 59.600,207.623 59.600 C 208.196 59.600,210.400 57.148,210.400 56.511 C 210.400 56.230,210.580 56.000,210.800 56.000 C 211.020 56.000,211.200 55.640,211.200 55.200 C 211.200 54.760,211.380 54.400,211.600 54.400 C 211.843 54.400,212.000 52.608,212.000 49.824 C 212.000 47.204,211.829 45.142,211.600 45.000 C 211.380 44.864,211.200 44.403,211.200 43.976 C 211.200 43.549,211.020 43.200,210.800 43.200 C 210.580 43.200,210.400 43.012,210.400 42.782 C 210.400 42.552,209.950 41.914,209.400 41.364 C 208.850 40.814,208.400 40.192,208.400 39.982 C 208.400 39.772,208.130 39.600,207.800 39.600 C 207.470 39.600,207.199 39.465,207.197 39.300 C 207.193 38.894,205.214 38.000,204.320 38.000 C 203.924 38.000,203.600 37.820,203.600 37.600 C 203.600 37.363,202.133 37.200,200.000 37.200 C 197.867 37.200,196.400 37.363,196.400 37.600 M253.000 62.400 C 252.864 62.620,252.400 62.800,251.968 62.800 C 250.376 62.800,245.600 66.520,245.600 67.760 C 245.600 68.112,245.420 68.400,245.200 68.400 C 244.980 68.400,244.800 68.760,244.800 69.200 C 244.800 69.640,244.620 70.000,244.400 70.000 C 244.180 70.000,244.000 70.720,244.000 71.600 C 244.000 72.480,243.820 73.200,243.600 73.200 C 243.380 73.200,243.200 73.909,243.200 74.776 C 243.200 75.643,243.034 76.455,242.831 76.581 C 242.629 76.706,242.337 77.979,242.184 79.410 C 242.031 80.841,241.747 82.109,241.553 82.229 C 241.359 82.349,241.200 83.157,241.200 84.024 C 241.200 84.891,241.020 85.600,240.800 85.600 C 240.580 85.600,240.400 86.500,240.400 87.600 C 240.400 88.700,240.220 89.600,240.000 89.600 C 239.780 89.600,239.600 90.219,239.600 90.976 C 239.600 91.733,239.420 92.464,239.200 92.600 C 238.980 92.736,238.800 93.467,238.800 94.224 C 238.800 94.981,238.620 95.600,238.400 95.600 C 238.180 95.600,238.000 96.320,238.000 97.200 C 238.000 98.080,237.820 98.800,237.600 98.800 C 237.380 98.800,237.200 99.509,237.200 100.376 C 237.200 101.243,237.020 102.064,236.800 102.200 C 236.580 102.336,236.400 103.247,236.400 104.224 C 236.400 105.201,236.220 106.000,236.000 106.000 C 235.780 106.000,235.600 106.720,235.600 107.600 C 235.600 108.480,235.420 109.200,235.200 109.200 C 234.980 109.200,234.800 109.830,234.800 110.600 C 234.800 111.370,234.620 112.000,234.400 112.000 C 234.180 112.000,234.000 112.709,234.000 113.576 C 234.000 114.443,233.820 115.264,233.600 115.400 C 233.380 115.536,233.200 116.357,233.200 117.224 C 233.200 118.091,233.020 118.800,232.800 118.800 C 232.580 118.800,232.400 119.610,232.400 120.600 C 232.400 121.590,232.220 122.400,232.000 122.400 C 231.780 122.400,231.600 123.120,231.600 124.000 C 231.600 124.880,231.420 125.600,231.200 125.600 C 230.980 125.600,230.800 126.219,230.800 126.976 C 230.800 127.733,230.639 128.452,230.442 128.574 C 230.245 128.695,229.990 129.471,229.875 130.297 C 229.760 131.124,229.461 132.610,229.211 133.600 C 228.470 136.535,227.962 138.903,227.732 140.500 C 227.613 141.325,227.355 142.000,227.158 142.000 C 226.961 142.000,226.800 142.482,226.800 143.072 C 226.800 143.661,226.636 144.696,226.435 145.372 C 225.525 148.435,224.800 152.070,224.800 153.566 C 224.800 154.465,224.620 155.200,224.400 155.200 C 224.180 155.200,224.000 155.920,224.000 156.800 C 224.000 157.680,223.820 158.400,223.600 158.400 C 223.380 158.400,223.200 159.131,223.200 160.024 C 223.200 161.004,223.042 161.549,222.800 161.400 C 222.558 161.251,222.400 161.796,222.400 162.776 C 222.400 163.669,222.220 164.400,222.000 164.400 C 221.780 164.400,221.600 165.210,221.600 166.200 C 221.600 167.190,221.420 168.000,221.200 168.000 C 220.980 168.000,220.800 168.810,220.800 169.800 C 220.800 170.790,220.620 171.600,220.400 171.600 C 220.180 171.600,220.000 172.320,220.000 173.200 C 220.000 174.080,219.820 174.800,219.600 174.800 C 219.380 174.800,219.200 175.520,219.200 176.400 C 219.200 177.280,219.020 178.000,218.800 178.000 C 218.580 178.000,218.400 178.720,218.400 179.600 C 218.400 180.480,218.220 181.200,218.000 181.200 C 217.780 181.200,217.600 181.909,217.600 182.776 C 217.600 183.643,217.420 184.464,217.200 184.600 C 216.980 184.736,216.800 185.557,216.800 186.424 C 216.800 187.291,216.620 188.000,216.400 188.000 C 216.180 188.000,216.000 188.720,216.000 189.600 C 216.000 190.480,215.820 191.200,215.600 191.200 C 215.380 191.200,215.200 191.819,215.200 192.576 C 215.200 193.333,215.020 194.064,214.800 194.200 C 214.580 194.336,214.400 195.056,214.400 195.800 C 214.400 196.544,214.239 197.252,214.042 197.374 C 213.199 197.895,212.368 210.400,213.176 210.400 C 213.409 210.400,213.600 210.760,213.600 211.200 C 213.600 211.640,213.780 212.000,214.000 212.000 C 214.220 212.000,214.400 212.276,214.400 212.613 C 214.400 213.233,216.908 215.992,217.487 216.009 C 217.659 216.014,218.250 216.370,218.800 216.800 C 219.350 217.230,220.205 217.586,220.700 217.591 C 221.195 217.596,221.600 217.780,221.600 218.000 C 221.600 218.233,222.925 218.400,224.776 218.400 C 226.523 218.400,228.064 218.220,228.200 218.000 C 228.336 217.780,228.977 217.600,229.624 217.600 C 230.271 217.600,230.800 217.450,230.800 217.268 C 230.800 217.085,231.294 216.680,231.897 216.368 C 233.401 215.589,235.600 213.360,235.600 212.613 C 235.600 212.276,235.780 212.000,236.000 212.000 C 236.220 212.000,236.400 211.640,236.400 211.200 C 236.400 210.760,236.580 210.400,236.800 210.400 C 237.020 210.400,237.200 209.781,237.200 209.024 C 237.200 208.267,237.380 207.536,237.600 207.400 C 237.820 207.264,238.000 206.544,238.000 205.800 C 238.000 205.056,238.180 204.336,238.400 204.200 C 238.620 204.064,238.800 203.344,238.800 202.600 C 238.800 201.856,238.961 201.148,239.158 201.026 C 239.355 200.905,239.618 200.129,239.742 199.303 C 240.305 195.580,240.516 194.574,240.813 194.200 C 240.989 193.980,241.260 192.495,241.418 190.900 C 241.575 189.305,241.860 188.000,242.052 188.000 C 242.243 188.000,242.400 187.280,242.400 186.400 C 242.400 185.520,242.580 184.800,242.800 184.800 C 243.020 184.800,243.200 184.080,243.200 183.200 C 243.200 182.320,243.380 181.600,243.600 181.600 C 243.820 181.600,244.000 180.891,244.000 180.024 C 244.000 179.157,244.180 178.336,244.400 178.200 C 244.620 178.064,244.800 177.243,244.800 176.376 C 244.800 175.509,244.980 174.800,245.200 174.800 C 245.420 174.800,245.600 174.080,245.600 173.200 C 245.600 172.320,245.780 171.600,246.000 171.600 C 246.220 171.600,246.400 170.880,246.400 170.000 C 246.400 169.120,246.580 168.400,246.800 168.400 C 247.020 168.400,247.200 167.680,247.200 166.800 C 247.200 165.920,247.380 165.200,247.600 165.200 C 247.820 165.200,248.000 164.491,248.000 163.624 C 248.000 162.757,248.180 161.936,248.400 161.800 C 248.620 161.664,248.800 160.854,248.800 160.000 C 248.800 159.146,248.980 158.336,249.200 158.200 C 249.420 158.064,249.600 157.344,249.600 156.600 C 249.600 155.856,249.780 155.136,250.000 155.000 C 250.220 154.864,250.400 154.133,250.400 153.376 C 250.400 152.619,250.580 152.000,250.800 152.000 C 251.020 152.000,251.200 151.291,251.200 150.424 C 251.200 149.557,251.361 148.748,251.558 148.626 C 251.894 148.418,252.106 147.389,252.653 143.300 C 252.778 142.365,253.042 141.600,253.240 141.600 C 253.438 141.600,253.600 140.981,253.600 140.224 C 253.600 139.467,253.780 138.736,254.000 138.600 C 254.220 138.464,254.400 137.744,254.400 137.000 C 254.400 136.256,254.580 135.536,254.800 135.400 C 255.020 135.264,255.200 134.544,255.200 133.800 C 255.200 133.056,255.361 132.348,255.558 132.226 C 255.894 132.018,256.106 130.989,256.653 126.900 C 256.778 125.965,257.024 125.200,257.198 125.200 C 257.373 125.200,257.621 124.525,257.750 123.700 C 257.879 122.875,258.203 120.805,258.471 119.100 C 258.739 117.395,259.103 116.000,259.279 116.000 C 259.456 116.000,259.600 115.291,259.600 114.424 C 259.600 113.557,259.780 112.736,260.000 112.600 C 260.220 112.464,260.400 111.553,260.400 110.576 C 260.400 109.599,260.580 108.800,260.800 108.800 C 261.020 108.800,261.200 108.170,261.200 107.400 C 261.200 106.630,261.380 106.000,261.600 106.000 C 261.820 106.000,262.000 105.280,262.000 104.400 C 262.000 103.520,262.180 102.800,262.400 102.800 C 262.620 102.800,262.800 102.080,262.800 101.200 C 262.800 100.320,262.980 99.600,263.200 99.600 C 263.420 99.600,263.600 98.891,263.600 98.024 C 263.600 97.157,263.780 96.336,264.000 96.200 C 264.220 96.064,264.400 95.153,264.400 94.176 C 264.400 93.199,264.580 92.400,264.800 92.400 C 265.020 92.400,265.200 91.781,265.200 91.024 C 265.200 90.267,265.380 89.536,265.600 89.400 C 265.820 89.264,266.000 88.544,266.000 87.800 C 266.000 87.056,266.180 86.336,266.400 86.200 C 266.620 86.064,266.800 85.344,266.800 84.600 C 266.800 83.856,266.961 83.148,267.158 83.026 C 268.001 82.505,268.832 70.000,268.024 70.000 C 267.791 70.000,267.600 69.640,267.600 69.200 C 267.600 68.760,267.420 68.400,267.200 68.400 C 266.980 68.400,266.800 68.165,266.800 67.878 C 266.800 67.168,264.452 64.726,263.100 64.031 C 262.495 63.719,262.000 63.315,262.000 63.132 C 262.000 62.950,261.460 62.800,260.800 62.800 C 260.140 62.800,259.600 62.620,259.600 62.400 C 259.600 62.167,258.275 62.000,256.424 62.000 C 254.677 62.000,253.136 62.180,253.000 62.400 M159.200 106.400 C 159.200 106.620,158.660 106.800,158.000 106.800 C 157.340 106.800,156.800 106.980,156.800 107.200 C 156.800 107.420,156.440 107.600,156.000 107.600 C 155.560 107.600,155.199 107.735,155.199 107.900 C 155.198 108.065,154.659 108.560,154.000 109.000 C 153.341 109.440,152.802 110.025,152.801 110.300 C 152.801 110.575,152.654 110.800,152.475 110.800 C 152.296 110.800,151.902 111.430,151.600 112.200 C 151.298 112.970,150.904 113.600,150.725 113.600 C 150.546 113.600,150.400 116.210,150.400 119.400 C 150.400 123.000,150.552 125.200,150.800 125.200 C 151.025 125.200,151.200 126.325,151.200 127.776 C 151.200 129.193,151.380 130.464,151.600 130.600 C 151.820 130.736,152.000 131.996,152.000 133.400 C 152.000 134.804,152.180 136.064,152.400 136.200 C 152.620 136.336,152.800 137.506,152.800 138.800 C 152.800 140.094,152.980 141.264,153.200 141.400 C 153.420 141.536,153.600 142.897,153.600 144.424 C 153.600 146.008,153.772 147.200,154.000 147.200 C 154.225 147.200,154.400 148.325,154.400 149.776 C 154.400 151.193,154.580 152.464,154.800 152.600 C 155.020 152.736,155.200 154.007,155.200 155.424 C 155.200 156.875,155.375 158.000,155.600 158.000 C 155.829 158.000,156.000 159.200,156.000 160.800 C 156.000 162.400,156.171 163.600,156.400 163.600 C 156.626 163.600,156.800 164.733,156.800 166.200 C 156.800 167.667,156.974 168.800,157.200 168.800 C 157.429 168.800,157.600 170.000,157.600 171.600 C 157.600 173.140,157.753 174.400,157.941 174.400 C 158.128 174.400,158.410 176.065,158.567 178.100 C 158.724 180.135,158.923 182.340,159.010 183.000 C 159.598 187.472,160.074 190.954,160.404 193.200 C 161.287 199.219,161.644 201.935,161.849 204.200 C 161.969 205.520,162.232 206.771,162.434 206.980 C 162.635 207.189,162.800 208.044,162.800 208.880 C 162.800 209.716,162.980 210.400,163.200 210.400 C 163.420 210.400,163.600 210.760,163.600 211.200 C 163.600 211.640,163.780 212.000,164.000 212.000 C 164.220 212.000,164.400 212.256,164.400 212.568 C 164.400 213.308,167.892 216.800,168.632 216.800 C 168.944 216.800,169.200 216.980,169.200 217.200 C 169.200 217.420,169.740 217.600,170.400 217.600 C 171.060 217.600,171.600 217.780,171.600 218.000 C 171.600 218.235,173.000 218.400,175.000 218.400 C 177.000 218.400,178.400 218.235,178.400 218.000 C 178.400 217.780,178.940 217.600,179.600 217.600 C 180.260 217.600,180.800 217.450,180.800 217.268 C 180.800 217.085,181.294 216.680,181.897 216.368 C 183.401 215.589,185.600 213.360,185.600 212.613 C 185.600 212.276,185.780 212.000,186.000 212.000 C 186.220 212.000,186.400 211.640,186.400 211.200 C 186.400 210.760,186.580 210.400,186.800 210.400 C 187.048 210.400,187.200 208.275,187.200 204.824 C 187.200 201.537,187.036 199.146,186.800 199.000 C 186.580 198.864,186.400 197.694,186.400 196.400 C 186.400 195.106,186.220 193.936,186.000 193.800 C 185.780 193.664,185.600 192.429,185.600 191.056 C 185.600 189.683,185.435 188.389,185.234 188.180 C 184.888 187.821,184.687 186.277,184.158 179.900 C 184.035 178.415,183.769 177.200,183.567 177.200 C 183.365 177.200,183.200 175.940,183.200 174.400 C 183.200 172.800,183.029 171.600,182.800 171.600 C 182.575 171.600,182.400 170.475,182.400 169.024 C 182.400 167.607,182.220 166.336,182.000 166.200 C 181.780 166.064,181.600 164.894,181.600 163.600 C 181.600 162.306,181.420 161.136,181.200 161.000 C 180.980 160.864,180.800 159.503,180.800 157.976 C 180.800 156.392,180.628 155.200,180.400 155.200 C 180.175 155.200,180.000 154.075,180.000 152.624 C 180.000 151.207,179.820 149.936,179.600 149.800 C 179.380 149.664,179.200 148.393,179.200 146.976 C 179.200 145.525,179.025 144.400,178.800 144.400 C 178.571 144.400,178.400 143.200,178.400 141.600 C 178.400 140.000,178.229 138.800,178.000 138.800 C 177.771 138.800,177.600 137.600,177.600 136.000 C 177.600 134.400,177.429 133.200,177.200 133.200 C 176.974 133.200,176.800 132.067,176.800 130.600 C 176.800 129.133,176.626 128.000,176.400 128.000 C 176.175 128.000,176.000 126.875,176.000 125.424 C 176.000 124.007,175.848 122.753,175.661 122.638 C 175.475 122.523,175.215 120.657,175.083 118.492 C 174.791 113.698,172.160 108.400,170.072 108.400 C 169.812 108.400,169.600 108.220,169.600 108.000 C 169.600 107.780,169.330 107.600,169.000 107.600 C 168.670 107.600,168.400 107.420,168.400 107.200 C 168.400 106.980,167.860 106.800,167.200 106.800 C 166.540 106.800,166.000 106.620,166.000 106.400 C 166.000 106.165,164.600 106.000,162.600 106.000 C 160.600 106.000,159.200 106.165,159.200 106.400 M46.400 131.174 C 46.070 131.353,44.995 131.917,44.011 132.426 C 41.932 133.501,39.600 135.701,39.600 136.587 C 39.600 136.924,39.420 137.200,39.200 137.200 C 38.980 137.200,38.800 137.560,38.800 138.000 C 38.800 138.440,38.620 138.800,38.400 138.800 C 38.157 138.800,38.000 140.600,38.000 143.400 C 38.000 146.200,38.157 148.000,38.400 148.000 C 38.620 148.000,38.800 148.360,38.800 148.800 C 38.800 149.240,38.980 149.600,39.200 149.600 C 39.420 149.600,39.600 149.885,39.600 150.233 C 39.600 150.929,116.875 228.400,117.569 228.400 C 117.806 228.400,118.001 228.535,118.003 228.700 C 118.007 229.106,119.986 230.000,120.880 230.000 C 121.276 230.000,121.600 230.180,121.600 230.400 C 121.600 230.635,123.000 230.800,125.000 230.800 C 127.000 230.800,128.400 230.635,128.400 230.400 C 128.400 230.180,128.940 230.000,129.600 230.000 C 130.260 230.000,130.800 229.820,130.800 229.600 C 130.800 229.380,131.075 229.200,131.411 229.200 C 132.596 229.200,136.400 224.782,136.400 223.405 C 136.400 223.072,136.580 222.800,136.800 222.800 C 137.043 222.800,137.200 221.000,137.200 218.200 C 137.200 215.400,137.043 213.600,136.800 213.600 C 136.580 213.600,136.400 213.240,136.400 212.800 C 136.400 212.360,136.220 212.000,136.000 212.000 C 135.780 212.000,135.600 211.799,135.600 211.554 C 135.600 211.309,133.215 208.728,130.300 205.818 C 127.385 202.909,123.425 198.868,121.500 196.838 C 119.575 194.808,118.000 193.242,118.000 193.358 C 118.000 193.564,112.452 188.045,104.926 180.355 C 102.905 178.290,99.035 174.416,96.326 171.746 C 93.617 169.076,89.825 165.259,87.900 163.263 C 85.975 161.268,84.400 159.710,84.400 159.802 C 84.400 160.018,76.039 151.612,71.500 146.832 C 69.575 144.805,68.000 143.246,68.000 143.368 C 68.000 143.490,65.490 141.072,62.423 137.995 C 59.355 134.918,56.565 132.400,56.223 132.400 C 55.880 132.400,55.600 132.220,55.600 132.000 C 55.600 131.780,55.161 131.600,54.624 131.600 C 54.087 131.600,53.536 131.420,53.400 131.200 C 53.107 130.725,47.265 130.703,46.400 131.174 M332.600 175.407 C 331.720 175.734,330.640 176.163,330.200 176.361 C 326.714 177.927,325.555 178.400,325.204 178.400 C 324.982 178.400,324.800 178.580,324.800 178.800 C 324.800 179.020,324.260 179.200,323.600 179.200 C 322.940 179.200,322.400 179.380,322.400 179.600 C 322.400 179.820,322.040 180.000,321.600 180.000 C 321.160 180.000,320.800 180.180,320.800 180.400 C 320.800 180.620,320.361 180.800,319.824 180.800 C 319.287 180.800,318.736 180.980,318.600 181.200 C 318.464 181.420,318.003 181.600,317.576 181.600 C 317.149 181.600,316.800 181.780,316.800 182.000 C 316.800 182.220,316.451 182.400,316.024 182.400 C 315.597 182.400,315.136 182.580,315.000 182.800 C 314.864 183.020,314.313 183.200,313.776 183.200 C 313.239 183.200,312.800 183.380,312.800 183.600 C 312.800 183.820,312.440 184.000,312.000 184.000 C 311.560 184.000,311.200 184.180,311.200 184.400 C 311.200 184.620,310.750 184.800,310.200 184.800 C 309.650 184.800,309.200 184.980,309.200 185.200 C 309.200 185.420,308.840 185.600,308.400 185.600 C 307.960 185.600,307.600 185.780,307.600 186.000 C 307.600 186.220,307.240 186.400,306.800 186.400 C 306.360 186.400,306.000 186.580,306.000 186.800 C 306.000 187.020,305.460 187.200,304.800 187.200 C 304.140 187.200,303.600 187.380,303.600 187.600 C 303.600 187.820,303.240 188.000,302.800 188.000 C 302.360 188.000,302.000 188.180,302.000 188.400 C 302.000 188.620,301.460 188.800,300.800 188.800 C 300.140 188.800,299.600 188.980,299.600 189.200 C 299.600 189.420,299.240 189.600,298.800 189.600 C 298.360 189.600,298.000 189.780,298.000 190.000 C 298.000 190.220,297.640 190.400,297.200 190.400 C 296.760 190.400,296.400 190.580,296.400 190.800 C 296.400 191.020,295.860 191.200,295.200 191.200 C 294.540 191.200,294.000 191.335,294.000 191.500 C 294.000 191.665,292.830 192.153,291.400 192.585 C 289.970 193.017,288.800 193.512,288.800 193.685 C 288.800 193.858,288.528 194.000,288.195 194.000 C 287.607 194.000,287.182 194.167,285.305 195.138 C 284.813 195.392,284.138 195.600,283.805 195.600 C 283.472 195.600,283.200 195.780,283.200 196.000 C 283.200 196.220,282.761 196.400,282.224 196.400 C 281.687 196.400,281.136 196.580,281.000 196.800 C 280.864 197.020,280.403 197.200,279.976 197.200 C 279.549 197.200,279.199 197.335,279.197 197.500 C 279.193 197.906,277.214 198.800,276.320 198.800 C 275.924 198.800,275.600 198.980,275.600 199.200 C 275.600 199.420,275.240 199.600,274.800 199.600 C 274.360 199.600,274.000 199.780,274.000 200.000 C 274.000 200.220,273.460 200.400,272.800 200.400 C 272.140 200.400,271.600 200.580,271.600 200.800 C 271.600 201.020,271.240 201.200,270.800 201.200 C 270.360 201.200,270.000 201.380,270.000 201.600 C 270.000 201.820,269.640 202.000,269.200 202.000 C 268.760 202.000,268.400 202.180,268.400 202.400 C 268.400 202.620,267.860 202.800,267.200 202.800 C 266.540 202.800,266.000 202.980,266.000 203.200 C 266.000 203.420,265.640 203.600,265.200 203.600 C 264.760 203.600,264.400 203.780,264.400 204.000 C 264.400 204.220,263.961 204.400,263.424 204.400 C 262.887 204.400,262.336 204.580,262.200 204.800 C 262.064 205.020,261.603 205.200,261.176 205.200 C 260.749 205.200,260.400 205.380,260.400 205.600 C 260.400 205.820,260.040 206.000,259.600 206.000 C 259.160 206.000,258.800 206.180,258.800 206.400 C 258.800 206.620,258.350 206.800,257.800 206.800 C 257.250 206.800,256.800 206.980,256.800 207.200 C 256.800 207.420,256.555 207.600,256.256 207.600 C 255.494 207.600,252.000 210.747,252.000 211.434 C 252.000 211.745,251.820 212.000,251.600 212.000 C 251.380 212.000,251.200 212.360,251.200 212.800 C 251.200 213.240,251.020 213.600,250.800 213.600 C 249.914 213.600,250.324 222.179,251.300 224.054 C 252.359 226.088,255.315 229.200,256.189 229.200 C 256.525 229.200,256.800 229.380,256.800 229.600 C 256.800 229.820,257.340 230.000,258.000 230.000 C 258.660 230.000,259.200 230.180,259.200 230.400 C 259.200 230.635,260.600 230.800,262.600 230.800 C 264.600 230.800,266.000 230.635,266.000 230.400 C 266.000 230.180,266.540 230.000,267.200 230.000 C 267.860 230.000,268.400 229.820,268.400 229.600 C 268.400 229.380,268.760 229.200,269.200 229.200 C 269.640 229.200,270.000 229.020,270.000 228.800 C 270.000 228.580,270.450 228.400,271.000 228.400 C 271.550 228.400,272.000 228.220,272.000 228.000 C 272.000 227.780,272.265 227.600,272.588 227.600 C 272.911 227.600,273.817 227.240,274.600 226.800 C 275.383 226.360,276.379 226.000,276.812 226.000 C 277.245 226.000,277.600 225.840,277.600 225.645 C 277.600 225.449,278.272 225.163,279.093 225.009 C 279.914 224.855,281.298 224.385,282.168 223.964 C 283.038 223.544,283.986 223.200,284.275 223.200 C 284.564 223.200,284.800 223.020,284.800 222.800 C 284.800 222.580,285.143 222.400,285.562 222.400 C 286.221 222.400,287.389 221.914,290.495 220.350 C 290.877 220.157,291.462 220.000,291.795 220.000 C 292.128 220.000,292.400 219.820,292.400 219.600 C 292.400 219.380,292.760 219.200,293.200 219.200 C 293.640 219.200,294.000 219.020,294.000 218.800 C 294.000 218.580,294.540 218.400,295.200 218.400 C 295.860 218.400,296.400 218.220,296.400 218.000 C 296.400 217.780,296.760 217.600,297.200 217.600 C 297.640 217.600,298.000 217.420,298.000 217.200 C 298.000 216.980,298.439 216.800,298.976 216.800 C 299.513 216.800,300.064 216.620,300.200 216.400 C 300.336 216.180,300.797 216.000,301.224 216.000 C 301.651 216.000,302.000 215.820,302.000 215.600 C 302.000 215.380,302.272 215.200,302.605 215.200 C 302.938 215.200,303.568 215.020,304.005 214.800 C 304.442 214.580,305.158 214.220,305.595 214.000 C 306.032 213.780,306.662 213.600,306.995 213.600 C 307.328 213.600,307.600 213.420,307.600 213.200 C 307.600 212.980,308.050 212.800,308.600 212.800 C 309.150 212.800,309.600 212.620,309.600 212.400 C 309.600 212.180,309.960 212.000,310.400 212.000 C 310.840 212.000,311.200 211.820,311.200 211.600 C 311.200 211.380,311.549 211.200,311.976 211.200 C 312.403 211.200,312.864 211.020,313.000 210.800 C 313.136 210.580,313.687 210.400,314.224 210.400 C 314.761 210.400,315.200 210.220,315.200 210.000 C 315.200 209.780,315.560 209.600,316.000 209.600 C 316.440 209.600,316.800 209.420,316.800 209.200 C 316.800 208.980,317.277 208.800,317.860 208.800 C 318.762 208.800,321.492 207.734,324.095 206.365 C 324.477 206.164,325.062 206.000,325.395 206.000 C 325.728 206.000,326.000 205.820,326.000 205.600 C 326.000 205.380,326.272 205.200,326.604 205.200 C 327.156 205.200,329.993 204.067,331.695 203.167 C 332.077 202.965,332.752 202.800,333.195 202.800 C 333.638 202.800,334.000 202.620,334.000 202.400 C 334.000 202.180,334.360 202.000,334.800 202.000 C 335.240 202.000,335.600 201.820,335.600 201.600 C 335.600 201.380,335.955 201.200,336.388 201.200 C 336.821 201.200,337.817 200.840,338.600 200.400 C 339.383 199.960,340.289 199.600,340.612 199.600 C 340.935 199.600,341.200 199.420,341.200 199.200 C 341.200 198.980,341.650 198.800,342.200 198.800 C 342.750 198.800,343.200 198.620,343.200 198.400 C 343.200 198.180,343.475 198.000,343.811 198.000 C 344.604 198.000,348.000 194.604,348.000 193.811 C 348.000 193.475,348.180 193.200,348.400 193.200 C 348.620 193.200,348.800 192.840,348.800 192.400 C 348.800 191.960,348.980 191.600,349.200 191.600 C 349.443 191.600,349.600 189.800,349.600 187.000 C 349.600 184.200,349.443 182.400,349.200 182.400 C 348.980 182.400,348.800 182.040,348.800 181.600 C 348.800 181.160,348.620 180.800,348.400 180.800 C 348.180 180.800,348.000 180.545,348.000 180.234 C 348.000 176.646,337.836 173.459,332.600 175.407 " stroke="none" fill="#fbaf43" fill-rule="evenodd"></path><path id="path1" d="M352.800 6.400 C 352.800 6.620,352.260 6.800,351.600 6.800 C 350.940 6.800,350.400 6.980,350.400 7.200 C 350.400 7.420,350.162 7.600,349.872 7.600 C 348.854 7.600,346.061 10.422,345.020 12.501 C 344.060 14.421,343.949 15.154,343.723 21.100 L 343.475 27.600 337.337 27.600 C 333.512 27.600,331.200 27.751,331.200 28.000 C 331.200 28.220,330.733 28.400,330.162 28.400 C 328.457 28.400,324.000 32.017,324.000 33.401 C 324.000 33.730,323.820 34.000,323.600 34.000 C 323.380 34.000,323.200 34.360,323.200 34.800 C 323.200 35.240,323.020 35.600,322.800 35.600 C 322.557 35.600,322.400 37.400,322.400 40.200 C 322.400 43.000,322.557 44.800,322.800 44.800 C 323.020 44.800,323.200 45.160,323.200 45.600 C 323.200 46.040,323.380 46.400,323.600 46.400 C 323.820 46.400,324.000 46.692,324.000 47.048 C 324.000 47.404,324.778 48.439,325.729 49.348 C 328.760 52.244,330.715 52.800,337.868 52.800 L 343.479 52.800 343.704 58.900 C 343.912 64.530,344.561 68.400,345.297 68.400 C 345.464 68.400,345.600 68.670,345.600 69.000 C 345.600 69.330,345.780 69.600,346.000 69.600 C 346.220 69.600,346.400 69.793,346.400 70.029 C 346.400 70.935,349.782 73.269,352.400 74.169 C 355.625 75.278,360.640 74.613,363.131 72.745 C 364.752 71.529,366.800 69.394,366.800 68.919 C 366.800 68.633,366.980 68.400,367.200 68.400 C 367.420 68.400,367.600 68.040,367.600 67.600 C 367.600 67.160,367.780 66.800,368.000 66.800 C 368.251 66.800,368.400 64.200,368.400 59.800 L 368.400 52.800 375.000 52.800 C 379.133 52.800,381.600 52.651,381.600 52.400 C 381.600 52.180,381.853 52.000,382.162 52.000 C 383.592 52.000,388.400 48.628,388.400 47.625 C 388.400 47.423,388.625 47.019,388.900 46.729 C 390.737 44.787,390.909 34.000,389.103 34.000 C 388.936 34.000,388.795 33.775,388.789 33.500 C 388.777 32.957,386.175 30.006,385.695 29.991 C 385.533 29.986,384.950 29.630,384.400 29.200 C 383.850 28.770,383.006 28.414,382.524 28.409 C 382.042 28.404,381.536 28.220,381.400 28.000 C 381.252 27.760,378.596 27.600,374.776 27.600 L 368.400 27.600 368.400 20.600 C 368.400 16.200,368.251 13.600,368.000 13.600 C 367.780 13.600,367.600 13.240,367.600 12.800 C 367.600 12.360,367.420 12.000,367.200 12.000 C 366.980 12.000,366.800 11.784,366.800 11.519 C 366.800 10.856,363.294 7.600,362.580 7.600 C 362.261 7.600,362.000 7.420,362.000 7.200 C 362.000 6.980,361.460 6.800,360.800 6.800 C 360.140 6.800,359.600 6.620,359.600 6.400 C 359.600 6.165,358.200 6.000,356.200 6.000 C 354.200 6.000,352.800 6.165,352.800 6.400 M15.200 200.000 C 15.200 200.220,14.876 200.400,14.480 200.400 C 13.586 200.400,11.607 201.294,11.603 201.700 C 11.601 201.865,11.407 202.000,11.171 202.000 C 10.936 202.000,10.473 202.270,10.143 202.600 C 9.813 202.930,9.686 203.200,9.860 203.200 C 10.035 203.200,9.778 203.480,9.289 203.823 C 8.800 204.165,8.400 204.795,8.400 205.223 C 8.400 205.650,8.220 206.000,8.000 206.000 C 7.780 206.000,7.600 206.360,7.600 206.800 C 7.600 207.240,7.420 207.600,7.200 207.600 C 6.957 207.600,6.800 209.400,6.800 212.200 C 6.800 215.000,6.957 216.800,7.200 216.800 C 7.420 216.800,7.600 217.160,7.600 217.600 C 7.600 218.040,7.780 218.400,8.000 218.400 C 8.220 218.400,8.400 218.676,8.400 219.013 C 8.400 219.572,10.024 221.409,11.679 222.723 C 13.737 224.357,20.024 225.413,21.905 224.441 C 22.287 224.244,23.391 223.755,24.358 223.354 C 26.346 222.531,29.200 219.983,29.200 219.031 C 29.200 218.684,29.380 218.400,29.600 218.400 C 29.820 218.400,30.000 218.040,30.000 217.600 C 30.000 217.160,30.180 216.800,30.400 216.800 C 30.643 216.800,30.800 215.000,30.800 212.200 C 30.800 209.400,30.643 207.600,30.400 207.600 C 30.180 207.600,30.000 207.240,30.000 206.800 C 30.000 206.360,29.820 206.000,29.600 206.000 C 29.380 206.000,29.200 205.725,29.200 205.389 C 29.200 204.596,25.804 201.200,25.011 201.200 C 24.675 201.200,24.400 201.020,24.400 200.800 C 24.400 200.580,23.961 200.400,23.424 200.400 C 22.887 200.400,22.336 200.220,22.200 200.000 C 22.064 199.780,20.433 199.600,18.576 199.600 C 16.592 199.600,15.200 199.765,15.200 200.000 " stroke="none" fill="#39c0bf" fill-rule="evenodd"></path><path id="path2" d="M243.800 341.327 C 243.140 341.587,242.251 342.114,241.825 342.499 C 241.398 342.885,240.858 343.206,240.625 343.212 C 239.841 343.235,237.504 346.790,236.556 349.401 C 232.402 360.847,224.538 368.933,213.400 373.212 C 210.526 374.316,207.577 374.959,203.000 375.481 L 200.200 375.800 200.094 387.700 L 199.988 399.600 203.594 399.600 C 205.731 399.600,207.200 399.437,207.200 399.200 C 207.200 398.978,208.259 398.800,209.576 398.800 C 210.883 398.800,212.064 398.620,212.200 398.400 C 212.336 398.180,213.247 398.000,214.224 398.000 C 215.201 398.000,216.000 397.820,216.000 397.600 C 216.000 397.380,216.619 397.200,217.376 397.200 C 218.133 397.200,218.864 397.020,219.000 396.800 C 219.136 396.580,219.676 396.400,220.200 396.400 C 220.724 396.400,221.264 396.220,221.400 396.000 C 221.536 395.780,222.007 395.600,222.447 395.600 C 222.887 395.600,223.136 395.420,223.000 395.200 C 222.856 394.967,223.263 394.800,223.976 394.800 C 224.649 394.800,225.200 394.620,225.200 394.400 C 225.200 394.180,225.560 394.000,226.000 394.000 C 226.440 394.000,226.800 393.820,226.800 393.600 C 226.800 393.380,227.160 393.200,227.600 393.200 C 228.040 393.200,228.400 393.020,228.400 392.800 C 228.400 392.580,228.760 392.400,229.200 392.400 C 229.640 392.400,230.000 392.220,230.000 392.000 C 230.000 391.780,230.279 391.600,230.620 391.600 C 231.370 391.600,233.553 390.505,234.309 389.748 C 234.610 389.447,235.016 389.200,235.210 389.200 C 235.405 389.200,236.014 388.750,236.564 388.200 C 237.114 387.650,237.730 387.200,237.934 387.200 C 238.137 387.200,239.045 386.480,239.952 385.600 C 240.859 384.720,241.704 384.000,241.831 384.000 C 242.219 384.000,247.200 378.732,247.200 378.322 C 247.200 378.110,247.920 377.246,248.800 376.400 C 249.680 375.554,250.400 374.669,250.400 374.431 C 250.400 374.194,250.550 374.000,250.732 374.000 C 250.915 374.000,251.319 373.505,251.630 372.900 C 251.940 372.295,252.511 371.509,252.897 371.153 C 253.284 370.797,253.600 370.212,253.600 369.853 C 253.600 369.494,253.780 369.200,254.000 369.200 C 254.220 369.200,254.400 368.917,254.400 368.571 C 254.400 367.695,255.681 366.443,255.901 367.104 C 255.992 367.377,256.671 367.600,257.410 367.600 C 258.148 367.600,258.864 367.780,259.000 368.000 C 259.136 368.220,259.766 368.400,260.400 368.400 C 261.034 368.400,261.664 368.580,261.800 368.800 C 261.936 369.020,262.757 369.200,263.624 369.200 C 264.491 369.200,265.200 369.380,265.200 369.600 C 265.200 369.820,265.729 370.000,266.376 370.000 C 267.023 370.000,267.664 370.180,267.800 370.400 C 267.936 370.620,268.656 370.800,269.400 370.800 C 270.144 370.800,270.864 370.980,271.000 371.200 C 271.136 371.420,271.856 371.600,272.600 371.600 C 273.344 371.600,274.064 371.780,274.200 372.000 C 274.336 372.220,274.966 372.400,275.600 372.400 C 276.234 372.400,276.864 372.580,277.000 372.800 C 277.136 373.020,277.856 373.200,278.600 373.200 C 279.344 373.200,280.064 373.380,280.200 373.600 C 280.336 373.820,281.037 374.000,281.757 374.000 C 282.477 374.000,283.192 374.125,283.345 374.278 C 283.669 374.603,284.189 374.705,287.300 375.055 C 288.565 375.197,289.600 375.468,289.600 375.657 C 289.600 375.846,290.230 376.000,291.000 376.000 C 291.770 376.000,292.400 376.180,292.400 376.400 C 292.400 376.620,293.120 376.800,294.000 376.800 C 294.880 376.800,295.600 376.980,295.600 377.200 C 295.600 377.420,296.320 377.600,297.200 377.600 C 298.080 377.600,298.800 377.780,298.800 378.000 C 298.800 378.220,299.520 378.400,300.400 378.400 C 301.280 378.400,302.000 378.580,302.000 378.800 C 302.000 379.020,302.720 379.200,303.600 379.200 C 304.480 379.200,305.200 379.380,305.200 379.600 C 305.200 379.820,305.729 380.000,306.376 380.000 C 307.023 380.000,307.664 380.180,307.800 380.400 C 307.936 380.620,308.757 380.800,309.624 380.800 C 310.491 380.800,311.200 380.980,311.200 381.200 C 311.200 381.420,311.729 381.600,312.376 381.600 C 313.023 381.600,313.664 381.780,313.800 382.000 C 313.936 382.220,314.667 382.400,315.424 382.400 C 316.181 382.400,316.800 382.580,316.800 382.800 C 316.800 383.020,317.520 383.200,318.400 383.200 C 319.280 383.200,320.000 383.380,320.000 383.600 C 320.000 383.820,320.720 384.000,321.600 384.000 C 322.480 384.000,323.200 384.180,323.200 384.400 C 323.200 384.620,323.920 384.800,324.800 384.800 C 325.680 384.800,326.400 384.980,326.400 385.200 C 326.400 385.420,327.019 385.600,327.776 385.600 C 328.533 385.600,329.264 385.780,329.400 386.000 C 329.536 386.220,330.267 386.400,331.024 386.400 C 331.781 386.400,332.400 386.580,332.400 386.800 C 332.400 387.020,333.120 387.200,334.000 387.200 C 334.880 387.200,335.600 387.380,335.600 387.600 C 335.600 387.820,336.320 388.000,337.200 388.000 C 338.080 388.000,338.800 388.180,338.800 388.400 C 338.800 388.620,339.520 388.800,340.400 388.800 C 341.280 388.800,342.000 388.980,342.000 389.200 C 342.000 389.420,342.619 389.600,343.376 389.600 C 344.133 389.600,344.864 389.780,345.000 390.000 C 345.136 390.220,345.856 390.400,346.600 390.400 C 347.344 390.400,348.051 390.559,348.171 390.753 C 348.291 390.947,349.559 391.231,350.990 391.384 C 352.421 391.537,353.694 391.829,353.819 392.031 C 353.945 392.234,354.667 392.400,355.424 392.400 C 356.181 392.400,356.800 392.580,356.800 392.800 C 356.800 393.020,357.520 393.200,358.400 393.200 C 359.280 393.200,360.000 393.380,360.000 393.600 C 360.000 393.820,360.619 394.000,361.376 394.000 C 362.133 394.000,362.864 394.180,363.000 394.400 C 363.136 394.620,363.867 394.800,364.624 394.800 C 365.381 394.800,366.000 394.980,366.000 395.200 C 366.000 395.420,366.720 395.600,367.600 395.600 C 368.480 395.600,369.200 395.780,369.200 396.000 C 369.200 396.220,369.920 396.400,370.800 396.400 C 371.680 396.400,372.400 396.580,372.400 396.800 C 372.400 397.020,373.120 397.200,374.000 397.200 C 374.880 397.200,375.600 397.380,375.600 397.600 C 375.600 397.820,376.230 398.000,377.000 398.000 C 377.770 398.000,378.400 398.180,378.400 398.400 C 378.400 398.620,379.105 398.800,379.967 398.800 C 380.850 398.800,381.605 399.014,381.697 399.291 C 381.934 400.001,393.663 400.009,393.900 399.300 C 393.992 399.025,394.293 398.800,394.570 398.800 C 395.302 398.800,398.800 395.387,398.800 394.673 C 398.800 394.340,399.025 393.992,399.300 393.900 C 399.670 393.777,399.800 392.191,399.800 387.800 C 399.800 383.409,399.670 381.823,399.300 381.700 C 399.025 381.608,398.800 381.264,398.800 380.935 C 398.800 380.085,395.685 377.200,394.767 377.200 C 394.345 377.200,394.000 376.930,394.000 376.600 C 394.000 375.856,391.746 375.765,391.499 376.500 C 391.364 376.900,391.052 376.900,389.937 376.500 C 389.170 376.225,388.162 376.000,387.695 376.000 C 387.229 376.000,386.736 375.820,386.600 375.600 C 386.464 375.380,385.832 375.200,385.195 375.200 C 384.559 375.200,383.624 375.039,383.119 374.842 C 382.067 374.432,379.082 373.635,373.200 372.196 C 371.770 371.846,363.850 369.842,355.600 367.743 C 347.350 365.644,339.970 363.777,339.200 363.595 C 338.430 363.413,336.360 362.875,334.600 362.400 C 332.840 361.925,330.680 361.363,329.800 361.150 C 328.313 360.791,327.198 360.514,323.600 359.613 C 322.830 359.420,320.940 358.961,319.400 358.594 C 317.860 358.226,316.287 357.762,315.905 357.563 C 315.523 357.363,314.906 357.200,314.534 357.200 C 314.161 357.200,313.304 357.025,312.628 356.810 C 311.953 356.596,310.230 356.130,308.800 355.774 C 306.396 355.177,305.449 354.948,301.600 354.030 C 300.830 353.846,294.080 352.127,286.600 350.210 C 279.120 348.293,272.325 346.562,271.500 346.362 C 267.907 345.494,266.738 345.197,262.200 344.000 C 259.560 343.303,256.770 342.577,256.000 342.385 C 255.230 342.193,253.790 341.826,252.800 341.568 C 250.248 340.904,245.221 340.769,243.800 341.327 M153.600 379.367 C 153.600 379.788,154.805 380.928,155.021 380.712 C 155.122 380.611,154.844 380.202,154.402 379.802 C 153.961 379.403,153.600 379.207,153.600 379.367 M160.400 385.895 C 160.400 386.284,162.014 387.319,162.251 387.082 C 162.347 386.986,161.969 386.610,161.412 386.245 C 160.856 385.880,160.400 385.722,160.400 385.895 M163.600 388.327 C 163.600 388.516,164.050 388.877,164.600 389.127 C 165.150 389.378,165.600 389.517,165.600 389.437 C 165.600 389.357,165.150 388.997,164.600 388.637 C 164.050 388.276,163.600 388.137,163.600 388.327 " stroke="none" fill="#845444" fill-rule="evenodd"></path><path id="path3" d="M246.900 340.676 C 247.285 340.776,247.915 340.776,248.300 340.676 C 248.685 340.575,248.370 340.493,247.600 340.493 C 246.830 340.493,246.515 340.575,246.900 340.676 M149.000 341.277 C 146.378 342.133,145.307 342.400,144.495 342.400 C 144.029 342.400,143.536 342.580,143.400 342.800 C 143.264 343.020,142.544 343.200,141.800 343.200 C 141.056 343.200,140.348 343.360,140.227 343.556 C 140.106 343.751,139.421 344.008,138.704 344.127 C 137.987 344.245,136.635 344.535,135.700 344.771 C 134.765 345.007,133.235 345.388,132.300 345.618 C 129.329 346.349,127.843 346.735,126.200 347.200 C 124.573 347.661,122.794 348.115,120.100 348.758 C 114.343 350.131,96.278 354.709,94.572 355.227 C 93.896 355.432,92.962 355.600,92.495 355.600 C 92.029 355.600,91.536 355.780,91.400 356.000 C 91.264 356.220,90.544 356.400,89.800 356.400 C 89.056 356.400,88.336 356.580,88.200 356.800 C 88.064 357.020,87.344 357.200,86.600 357.200 C 85.856 357.200,85.148 357.360,85.027 357.556 C 84.819 357.892,84.324 358.015,80.696 358.633 C 79.869 358.773,79.094 359.049,78.973 359.244 C 78.852 359.440,78.144 359.600,77.400 359.600 C 76.656 359.600,75.936 359.780,75.800 360.000 C 75.664 360.220,74.944 360.400,74.200 360.400 C 73.456 360.400,72.736 360.580,72.600 360.800 C 72.464 361.020,71.744 361.200,71.000 361.200 C 70.256 361.200,69.548 361.360,69.427 361.556 C 69.306 361.751,68.621 362.008,67.904 362.127 C 67.187 362.245,65.790 362.548,64.800 362.800 C 63.810 363.052,62.413 363.355,61.696 363.473 C 60.979 363.592,60.294 363.849,60.173 364.044 C 60.052 364.240,59.432 364.400,58.795 364.400 C 58.159 364.400,57.224 364.561,56.719 364.758 C 55.863 365.092,55.238 365.265,51.000 366.340 C 50.120 366.563,47.960 367.112,46.200 367.561 C 38.095 369.626,32.869 370.936,31.400 371.272 C 30.520 371.472,29.125 371.808,28.300 372.018 C 24.120 373.082,23.299 373.274,22.096 373.473 C 21.379 373.592,20.694 373.849,20.573 374.044 C 20.452 374.240,19.744 374.400,19.000 374.400 C 18.256 374.400,17.536 374.580,17.400 374.800 C 17.264 375.020,16.544 375.200,15.800 375.200 C 15.056 375.200,14.336 375.380,14.200 375.600 C 14.064 375.820,13.344 376.000,12.600 376.000 C 11.856 376.000,11.136 376.180,11.000 376.400 C 10.603 377.042,9.200 376.865,9.200 376.173 C 9.200 375.708,8.967 375.617,8.300 375.820 C 6.941 376.234,3.601 378.155,3.600 378.524 C 3.600 378.702,3.420 378.736,3.200 378.600 C 2.980 378.464,2.800 378.551,2.800 378.793 C 2.800 379.035,2.449 379.610,2.020 380.071 C 0.005 382.234,-1.053 393.316,0.700 393.900 C 0.975 393.992,1.200 394.282,1.200 394.545 C 1.200 395.217,3.975 398.000,4.646 398.000 C 4.951 398.000,5.200 398.136,5.200 398.302 C 5.200 399.641,17.473 400.580,17.909 399.274 C 17.995 399.014,18.671 398.800,19.410 398.800 C 20.148 398.800,20.864 398.620,21.000 398.400 C 21.136 398.180,21.856 398.000,22.600 398.000 C 23.344 398.000,24.064 397.820,24.200 397.600 C 24.336 397.380,24.966 397.200,25.600 397.200 C 26.234 397.200,26.864 397.020,27.000 396.800 C 27.136 396.580,27.856 396.400,28.600 396.400 C 29.344 396.400,30.064 396.220,30.200 396.000 C 30.336 395.780,31.067 395.600,31.824 395.600 C 32.581 395.600,33.200 395.420,33.200 395.200 C 33.200 394.980,33.920 394.800,34.800 394.800 C 35.680 394.800,36.400 394.620,36.400 394.400 C 36.400 394.180,37.019 394.000,37.776 394.000 C 38.533 394.000,39.264 393.820,39.400 393.600 C 39.536 393.380,40.267 393.200,41.024 393.200 C 41.781 393.200,42.400 393.020,42.400 392.800 C 42.400 392.580,43.120 392.400,44.000 392.400 C 44.880 392.400,45.600 392.220,45.600 392.000 C 45.600 391.780,46.129 391.600,46.775 391.600 C 47.421 391.600,49.446 391.225,51.275 390.766 C 53.104 390.308,55.275 389.768,56.100 389.566 C 56.925 389.365,58.365 389.007,59.300 388.771 C 60.235 388.535,61.587 388.245,62.304 388.127 C 63.021 388.008,63.706 387.751,63.827 387.556 C 63.948 387.360,64.656 387.200,65.400 387.200 C 66.144 387.200,66.864 387.020,67.000 386.800 C 67.136 386.580,67.856 386.400,68.600 386.400 C 69.344 386.400,70.052 386.240,70.173 386.044 C 70.381 385.708,70.876 385.585,74.504 384.967 C 75.331 384.827,76.106 384.551,76.227 384.356 C 76.348 384.160,77.067 384.000,77.824 384.000 C 78.581 384.000,79.200 383.820,79.200 383.600 C 79.200 383.380,79.920 383.200,80.800 383.200 C 81.680 383.200,82.400 383.020,82.400 382.800 C 82.400 382.580,83.120 382.400,84.000 382.400 C 84.880 382.400,85.600 382.220,85.600 382.000 C 85.600 381.780,86.219 381.600,86.976 381.600 C 87.733 381.600,88.464 381.420,88.600 381.200 C 88.736 380.980,89.467 380.800,90.224 380.800 C 90.981 380.800,91.600 380.620,91.600 380.400 C 91.600 380.180,92.320 380.000,93.200 380.000 C 94.080 380.000,94.800 379.820,94.800 379.600 C 94.800 379.380,95.520 379.200,96.400 379.200 C 97.280 379.200,98.000 379.020,98.000 378.800 C 98.000 378.580,98.619 378.400,99.376 378.400 C 100.133 378.400,100.864 378.220,101.000 378.000 C 101.136 377.780,101.867 377.600,102.624 377.600 C 103.381 377.600,104.000 377.420,104.000 377.200 C 104.000 376.980,104.619 376.800,105.376 376.800 C 106.133 376.800,106.864 376.620,107.000 376.400 C 107.136 376.180,107.856 376.000,108.600 376.000 C 109.344 376.000,110.051 375.841,110.171 375.647 C 110.291 375.453,111.606 375.165,113.094 375.008 C 114.582 374.850,115.980 374.580,116.200 374.408 C 116.624 374.076,121.308 372.863,123.504 372.517 C 124.221 372.404,124.906 372.151,125.027 371.956 C 125.148 371.760,125.957 371.600,126.824 371.600 C 127.691 371.600,128.400 371.420,128.400 371.200 C 128.400 370.980,129.019 370.800,129.776 370.800 C 130.533 370.800,131.264 370.620,131.400 370.400 C 131.536 370.180,132.256 370.000,133.000 370.000 C 133.744 370.000,134.464 369.820,134.600 369.600 C 134.736 369.380,135.456 369.200,136.200 369.200 C 136.944 369.200,137.664 369.020,137.800 368.800 C 137.936 368.580,138.667 368.400,139.424 368.400 C 140.181 368.400,140.800 368.220,140.800 368.000 C 140.800 367.780,141.520 367.600,142.400 367.600 C 143.280 367.600,144.000 367.420,144.000 367.200 C 144.000 366.468,145.142 366.787,145.397 367.590 C 145.698 368.539,148.844 373.344,149.287 373.533 C 149.459 373.607,149.600 373.830,149.600 374.029 C 149.600 374.542,150.372 375.448,155.247 380.655 C 158.654 384.294,164.459 388.926,168.000 390.831 C 168.990 391.364,169.860 391.935,169.933 392.100 C 170.007 392.265,170.412 392.400,170.833 392.400 C 171.255 392.400,171.600 392.580,171.600 392.800 C 171.600 393.020,171.960 393.200,172.400 393.200 C 172.840 393.200,173.200 393.380,173.200 393.600 C 173.200 393.820,173.549 394.000,173.976 394.000 C 174.403 394.000,174.864 394.180,175.000 394.400 C 175.136 394.620,175.687 394.800,176.224 394.800 C 176.761 394.800,177.200 394.980,177.200 395.200 C 177.200 395.420,177.650 395.600,178.200 395.600 C 178.750 395.600,179.200 395.780,179.200 396.000 C 179.200 396.220,179.652 396.400,180.205 396.400 C 180.758 396.400,181.523 396.558,181.905 396.751 C 183.235 397.422,185.465 398.000,186.728 398.000 C 187.428 398.000,188.000 398.180,188.000 398.400 C 188.000 398.629,189.200 398.800,190.800 398.800 C 192.400 398.800,193.600 398.971,193.600 399.200 C 193.600 399.433,194.931 399.600,196.794 399.600 L 199.988 399.600 200.094 387.700 L 200.200 375.800 201.600 375.553 L 203.000 375.305 201.524 375.253 C 200.712 375.224,199.923 375.401,199.771 375.646 C 199.591 375.938,198.855 375.997,197.648 375.818 C 192.306 375.023,191.286 374.845,190.000 374.485 C 178.997 371.399,170.159 364.113,165.394 354.200 C 163.782 350.846,163.577 350.358,162.734 347.866 C 162.163 346.179,159.175 342.856,157.600 342.155 C 154.497 340.776,151.479 340.468,149.000 341.277 M241.194 342.418 C 240.647 342.839,240.380 343.180,240.600 343.178 C 241.129 343.173,242.591 342.058,242.365 341.831 C 242.268 341.734,241.741 341.998,241.194 342.418 M260.600 343.600 C 261.040 343.789,261.760 343.938,262.200 343.932 C 262.843 343.923,262.804 343.857,262.000 343.600 C 260.632 343.162,259.581 343.162,260.600 343.600 M238.929 344.500 C 238.484 344.995,237.976 345.670,237.801 346.000 C 237.463 346.637,237.555 346.550,239.176 344.700 C 239.706 344.095,240.049 343.600,239.939 343.600 C 239.829 343.600,239.375 344.005,238.929 344.500 M263.800 344.400 C 264.240 344.589,264.870 344.744,265.200 344.744 C 265.578 344.744,265.504 344.617,265.000 344.400 C 264.560 344.211,263.930 344.056,263.600 344.056 C 263.222 344.056,263.296 344.183,263.800 344.400 M266.800 345.182 C 267.130 345.405,267.745 345.591,268.167 345.594 C 269.190 345.602,268.871 345.373,267.400 345.044 C 266.524 344.848,266.362 344.885,266.800 345.182 M270.000 345.994 C 270.330 346.211,271.035 346.391,271.567 346.394 C 272.851 346.402,272.525 346.175,270.800 345.858 C 269.815 345.677,269.578 345.718,270.000 345.994 M272.869 346.602 C 273.139 346.873,277.488 348.008,278.120 347.973 C 278.709 347.940,275.866 347.033,274.011 346.662 C 273.267 346.513,272.753 346.486,272.869 346.602 M279.400 348.400 C 279.840 348.589,280.560 348.738,281.000 348.732 C 281.643 348.723,281.604 348.657,280.800 348.400 C 279.432 347.962,278.381 347.962,279.400 348.400 M287.200 350.400 C 288.568 350.838,289.619 350.838,288.600 350.400 C 288.160 350.211,287.440 350.062,287.000 350.068 C 286.357 350.077,286.396 350.143,287.200 350.400 M289.633 350.944 C 289.725 351.023,290.340 351.208,291.000 351.356 C 291.876 351.552,292.038 351.515,291.600 351.218 C 291.060 350.853,289.232 350.598,289.633 350.944 M293.600 352.000 C 294.968 352.438,296.019 352.438,295.000 352.000 C 294.560 351.811,293.840 351.662,293.400 351.668 C 292.757 351.677,292.796 351.743,293.600 352.000 M299.800 353.600 C 300.996 354.114,301.995 354.114,301.200 353.600 C 300.870 353.387,300.240 353.222,299.800 353.234 L 299.000 353.256 299.800 353.600 M303.200 354.400 C 303.530 354.613,304.070 354.788,304.400 354.788 C 304.933 354.788,304.933 354.745,304.400 354.400 C 304.070 354.187,303.530 354.012,303.200 354.012 C 302.667 354.012,302.667 354.055,303.200 354.400 M306.400 355.200 C 306.730 355.413,307.270 355.588,307.600 355.588 C 308.133 355.588,308.133 355.545,307.600 355.200 C 307.270 354.987,306.730 354.812,306.400 354.812 C 305.867 354.812,305.867 354.855,306.400 355.200 M231.945 358.100 C 231.209 359.255,229.908 360.965,229.053 361.900 C 228.198 362.835,227.635 363.600,227.803 363.600 C 228.359 363.600,231.682 359.351,233.354 356.500 C 234.223 355.019,233.086 356.310,231.945 358.100 M319.000 358.400 C 319.440 358.589,320.070 358.744,320.400 358.744 C 320.778 358.744,320.704 358.617,320.200 358.400 C 319.760 358.211,319.130 358.056,318.800 358.056 C 318.422 358.056,318.496 358.183,319.000 358.400 M328.400 360.782 C 328.730 361.005,329.345 361.191,329.767 361.194 C 330.790 361.202,330.471 360.973,329.000 360.644 C 328.124 360.448,327.962 360.485,328.400 360.782 M337.600 363.194 C 337.930 363.411,338.635 363.591,339.167 363.594 C 340.451 363.602,340.125 363.375,338.400 363.058 C 337.415 362.877,337.178 362.918,337.600 363.194 M340.800 363.982 C 341.130 364.205,341.745 364.391,342.167 364.394 C 343.190 364.402,342.871 364.173,341.400 363.844 C 340.524 363.648,340.362 363.685,340.800 363.982 M343.200 364.546 C 343.200 364.626,344.505 364.999,346.100 365.374 C 347.695 365.749,349.360 366.156,349.800 366.278 C 350.240 366.400,350.484 366.376,350.343 366.226 C 349.915 365.771,343.200 364.191,343.200 364.546 M223.600 367.263 C 222.610 368.164,222.160 368.658,222.600 368.360 C 223.955 367.444,226.046 365.599,225.714 365.612 C 225.541 365.619,224.590 366.361,223.600 367.263 M350.833 366.543 C 350.925 366.621,351.630 366.801,352.400 366.942 C 353.385 367.123,353.622 367.082,353.200 366.806 C 352.658 366.450,350.437 366.203,350.833 366.543 M354.033 367.343 C 354.125 367.421,354.830 367.601,355.600 367.742 C 356.585 367.923,356.822 367.882,356.400 367.606 C 355.858 367.250,353.637 367.003,354.033 367.343 M358.000 368.400 C 359.368 368.838,360.419 368.838,359.400 368.400 C 358.960 368.211,358.240 368.062,357.800 368.068 C 357.157 368.077,357.196 368.143,358.000 368.400 M361.400 369.200 C 362.596 369.714,363.595 369.714,362.800 369.200 C 362.470 368.987,361.840 368.822,361.400 368.834 L 360.600 368.856 361.400 369.200 M218.800 370.433 L 217.800 371.248 219.100 370.614 C 219.815 370.265,220.400 369.894,220.400 369.790 C 220.400 369.392,219.763 369.648,218.800 370.433 M367.600 370.800 C 368.968 371.238,370.019 371.238,369.000 370.800 C 368.560 370.611,367.840 370.462,367.400 370.468 C 366.757 370.477,366.796 370.543,367.600 370.800 M370.800 371.600 C 371.130 371.813,371.670 371.988,372.000 371.988 C 372.533 371.988,372.533 371.945,372.000 371.600 C 371.670 371.387,371.130 371.212,370.800 371.212 C 370.267 371.212,370.267 371.255,370.800 371.600 M373.800 372.400 C 374.240 372.589,374.870 372.744,375.200 372.744 C 375.578 372.744,375.504 372.617,375.000 372.400 C 374.560 372.211,373.930 372.056,373.600 372.056 C 373.222 372.056,373.296 372.183,373.800 372.400 M206.400 374.800 C 205.596 375.057,205.557 375.123,206.200 375.132 C 206.640 375.138,207.360 374.989,207.800 374.800 C 208.819 374.362,207.768 374.362,206.400 374.800 M383.200 374.800 C 383.530 375.013,384.160 375.178,384.600 375.166 L 385.400 375.144 384.600 374.800 C 383.404 374.286,382.405 374.286,383.200 374.800 M386.600 375.600 C 386.736 375.820,387.242 375.987,387.724 375.972 C 388.569 375.945,388.571 375.931,387.800 375.600 C 386.699 375.127,386.308 375.127,386.600 375.600 M389.600 376.382 C 389.930 376.605,390.545 376.791,390.967 376.794 C 391.990 376.802,391.671 376.573,390.200 376.244 C 389.324 376.048,389.162 376.085,389.600 376.382 " stroke="none" fill="#ba827c" fill-rule="evenodd"></path><path id="path4" d="M66.800 258.745 C 66.800 258.935,64.881 259.032,62.536 258.961 C 60.191 258.890,58.076 258.955,57.836 259.105 C 57.181 259.515,56.482 259.600,53.200 259.670 C 51.550 259.705,50.106 259.873,49.991 260.043 C 49.876 260.213,48.886 260.433,47.791 260.532 C 40.860 261.157,39.331 261.345,38.743 261.646 C 38.381 261.831,37.166 262.015,36.043 262.055 C 34.919 262.094,34.000 262.278,34.000 262.463 C 34.000 262.649,33.775 262.800,33.500 262.799 C 32.241 262.796,28.205 265.272,28.686 265.752 C 28.822 265.889,28.623 266.000,28.243 266.000 C 27.863 266.000,27.657 266.169,27.785 266.375 C 27.912 266.582,27.788 266.897,27.508 267.075 C 26.850 267.496,25.883 269.216,26.153 269.487 C 26.268 269.601,26.129 269.929,25.843 270.214 C 25.137 270.920,25.199 278.866,25.913 279.104 C 26.183 279.194,26.296 279.444,26.163 279.659 C 26.030 279.874,26.237 280.399,26.623 280.825 C 27.008 281.251,27.172 281.600,26.986 281.600 C 26.799 281.600,26.996 281.864,27.424 282.187 C 27.851 282.510,28.059 282.780,27.886 282.787 C 27.713 282.794,27.983 283.223,28.486 283.741 C 28.989 284.258,29.580 284.616,29.800 284.537 C 30.020 284.457,30.687 284.844,31.283 285.396 C 31.878 285.948,32.834 286.400,33.406 286.400 C 33.979 286.400,34.344 286.567,34.218 286.770 C 34.082 286.990,35.331 287.080,37.295 286.992 C 42.382 286.764,45.600 286.366,45.600 285.964 C 45.600 285.764,46.770 285.600,48.200 285.600 C 50.010 285.600,50.802 285.448,50.806 285.100 C 50.811 284.732,50.903 284.743,51.156 285.143 C 51.396 285.521,51.583 285.551,51.774 285.243 C 51.930 284.990,53.204 284.800,54.744 284.800 C 56.307 284.800,57.642 284.598,57.920 284.320 C 58.293 283.947,58.401 283.969,58.406 284.420 C 58.410 284.827,58.501 284.860,58.710 284.532 C 58.905 284.226,60.667 284.033,63.804 283.975 C 66.442 283.925,68.804 283.727,69.053 283.533 C 69.554 283.143,98.124 283.290,99.400 283.689 C 99.840 283.826,102.056 283.953,104.324 283.969 C 106.964 283.989,108.358 284.144,108.200 284.400 C 108.044 284.652,108.996 284.800,110.776 284.800 C 112.329 284.800,113.600 284.952,113.600 285.138 C 113.600 285.324,114.628 285.510,115.884 285.551 C 117.141 285.592,118.266 285.781,118.384 285.971 C 118.503 286.161,119.590 286.417,120.800 286.540 C 124.558 286.923,126.396 287.270,126.626 287.642 C 126.748 287.839,127.546 288.000,128.400 288.000 C 129.254 288.000,130.072 288.192,130.217 288.427 C 130.362 288.662,130.710 288.767,130.991 288.659 C 131.271 288.551,131.947 288.695,132.492 288.978 C 133.412 289.455,135.077 289.871,137.000 290.103 C 137.440 290.156,138.020 290.407,138.290 290.661 C 138.559 290.915,139.684 291.246,140.790 291.399 C 141.895 291.551,142.800 291.838,142.800 292.038 C 142.800 292.237,143.351 292.400,144.024 292.400 C 144.697 292.400,145.153 292.553,145.037 292.739 C 144.922 292.926,145.805 293.313,147.000 293.600 C 148.195 293.887,149.078 294.274,148.963 294.461 C 148.847 294.647,149.123 294.800,149.576 294.800 C 150.029 294.800,150.400 294.980,150.400 295.200 C 150.400 295.458,146.000 295.600,138.000 295.600 C 130.000 295.600,125.600 295.742,125.600 296.000 C 125.600 296.240,124.000 296.400,121.600 296.400 C 119.200 296.400,117.600 296.560,117.600 296.800 C 117.600 297.029,116.400 297.200,114.800 297.200 C 113.200 297.200,112.000 297.371,112.000 297.600 C 112.000 297.826,110.867 298.000,109.400 298.000 C 107.933 298.000,106.800 298.174,106.800 298.400 C 106.800 298.620,105.900 298.800,104.800 298.800 C 103.700 298.800,102.800 298.980,102.800 299.200 C 102.800 299.420,101.889 299.600,100.776 299.600 C 99.529 299.600,98.848 299.753,99.000 300.000 C 99.152 300.246,98.479 300.400,97.247 300.400 C 96.147 300.400,95.136 300.580,95.000 300.800 C 94.864 301.020,94.133 301.200,93.376 301.200 C 92.619 301.200,92.000 301.380,92.000 301.600 C 92.000 301.820,91.291 302.000,90.424 302.000 C 89.557 302.000,88.736 302.180,88.600 302.400 C 88.464 302.620,87.733 302.800,86.976 302.800 C 86.219 302.800,85.600 302.980,85.600 303.200 C 85.600 303.420,84.895 303.600,84.033 303.600 C 83.172 303.600,82.407 303.774,82.333 303.987 C 82.260 304.200,81.615 304.419,80.900 304.472 C 80.185 304.526,79.600 304.712,79.600 304.885 C 79.600 305.058,78.970 305.200,78.200 305.200 C 77.430 305.200,76.800 305.380,76.800 305.600 C 76.800 305.820,76.350 306.000,75.800 306.000 C 75.250 306.000,74.800 306.180,74.800 306.400 C 74.800 306.620,74.080 306.800,73.200 306.800 C 72.320 306.800,71.600 306.980,71.600 307.200 C 71.600 307.420,71.060 307.600,70.400 307.600 C 69.740 307.600,69.200 307.780,69.200 308.000 C 69.200 308.220,68.782 308.400,68.271 308.400 C 67.143 308.400,63.807 309.433,62.300 310.250 C 61.695 310.577,61.200 310.709,61.200 310.543 C 61.200 310.376,60.984 310.456,60.720 310.720 C 60.456 310.984,59.826 311.200,59.320 311.200 C 58.814 311.200,58.400 311.380,58.400 311.600 C 58.400 311.820,57.860 312.000,57.200 312.000 C 56.540 312.000,56.000 312.147,56.000 312.328 C 56.000 312.508,55.100 312.900,54.000 313.200 C 52.900 313.500,52.000 313.860,52.000 314.000 C 52.000 314.140,51.100 314.500,50.000 314.800 C 48.900 315.100,48.000 315.492,48.000 315.672 C 48.000 315.853,47.651 316.000,47.224 316.000 C 46.797 316.000,46.336 316.180,46.200 316.400 C 46.064 316.620,45.513 316.800,44.976 316.800 C 44.439 316.800,43.999 316.935,43.997 317.100 C 43.993 317.506,42.014 318.400,41.120 318.400 C 40.724 318.400,40.400 318.580,40.400 318.800 C 40.400 319.020,40.040 319.200,39.600 319.200 C 39.160 319.200,38.800 319.380,38.800 319.600 C 38.800 319.820,38.440 320.000,38.000 320.000 C 37.560 320.000,37.200 320.180,37.200 320.400 C 37.200 320.620,36.840 320.800,36.400 320.800 C 35.960 320.800,35.600 320.980,35.600 321.200 C 35.600 321.420,35.060 321.600,34.400 321.600 C 33.740 321.600,33.200 321.780,33.200 322.000 C 33.200 322.220,32.840 322.400,32.400 322.400 C 31.960 322.400,31.600 322.580,31.600 322.800 C 31.600 323.020,31.240 323.200,30.800 323.200 C 30.360 323.200,30.000 323.380,30.000 323.600 C 30.000 323.820,29.640 324.000,29.200 324.000 C 28.760 324.000,28.400 324.180,28.400 324.400 C 28.400 324.620,28.074 324.800,27.675 324.800 C 27.277 324.800,26.560 325.164,26.083 325.608 C 25.606 326.053,25.122 326.413,25.008 326.408 C 24.893 326.404,24.635 326.400,24.433 326.400 C 23.796 326.400,20.800 329.508,20.800 330.169 C 20.800 330.516,20.620 330.800,20.400 330.800 C 20.180 330.800,20.000 331.149,20.000 331.576 C 20.000 332.003,19.820 332.464,19.600 332.600 C 19.380 332.736,19.200 333.276,19.200 333.800 C 19.200 334.324,19.020 334.864,18.800 335.000 C 18.580 335.136,18.400 335.856,18.400 336.600 C 18.400 337.344,18.220 338.064,18.000 338.200 C 17.780 338.336,17.600 339.067,17.600 339.824 C 17.600 340.581,17.420 341.200,17.200 341.200 C 16.980 341.200,16.800 341.920,16.800 342.800 C 16.800 343.680,16.620 344.400,16.400 344.400 C 16.180 344.400,16.000 345.120,16.000 346.000 C 16.000 346.880,15.820 347.600,15.600 347.600 C 15.380 347.600,15.200 348.219,15.200 348.976 C 15.200 349.733,15.020 350.464,14.800 350.600 C 14.580 350.736,14.400 351.456,14.400 352.200 C 14.400 352.944,14.220 353.664,14.000 353.800 C 13.780 353.936,13.600 354.656,13.600 355.400 C 13.600 356.144,13.420 356.864,13.200 357.000 C 12.980 357.136,12.800 357.856,12.800 358.600 C 12.800 359.344,12.659 360.040,12.487 360.146 C 12.315 360.252,12.130 360.926,12.075 361.643 C 12.021 362.360,11.824 363.139,11.638 363.373 C 11.453 363.608,11.199 364.340,11.075 365.000 C 10.951 365.660,10.666 366.920,10.443 367.800 C 8.325 376.139,8.328 376.173,11.128 375.561 C 14.981 374.719,16.488 374.358,20.200 373.391 C 23.965 372.409,54.172 364.728,57.200 363.982 C 57.970 363.792,59.365 363.448,60.300 363.218 C 61.235 362.988,62.675 362.628,63.500 362.418 C 64.325 362.208,65.540 361.924,66.200 361.788 C 66.860 361.651,67.760 361.393,68.200 361.213 C 68.640 361.034,70.260 360.584,71.800 360.213 C 76.690 359.035,77.765 358.772,79.300 358.382 C 80.125 358.172,81.475 357.837,82.300 357.637 C 83.125 357.438,89.920 355.704,97.400 353.784 C 104.880 351.864,111.630 350.153,112.400 349.981 C 113.170 349.809,116.680 348.917,120.200 348.000 C 123.720 347.083,127.275 346.167,128.100 345.966 C 128.925 345.765,130.320 345.420,131.200 345.200 C 132.080 344.980,133.475 344.632,134.300 344.427 C 135.125 344.221,136.520 343.849,137.400 343.600 C 138.280 343.351,139.675 342.979,140.500 342.773 C 144.254 341.839,145.310 341.571,146.900 341.148 C 155.330 338.909,161.065 341.651,164.029 349.338 C 168.636 361.284,178.838 371.320,188.400 373.312 C 188.950 373.426,190.444 373.808,191.720 374.160 C 194.387 374.896,205.378 375.083,205.800 374.400 C 205.936 374.180,206.746 374.000,207.600 374.000 C 208.454 374.000,209.264 373.820,209.400 373.600 C 209.536 373.380,210.089 373.200,210.629 373.200 C 211.169 373.200,211.923 373.041,212.305 372.847 C 212.687 372.652,213.450 372.316,214.000 372.100 C 219.747 369.841,225.982 365.216,229.772 360.403 C 230.836 359.052,234.000 353.662,234.000 353.201 C 234.000 352.994,234.360 352.183,234.800 351.400 C 235.240 350.617,235.600 349.728,235.600 349.426 C 235.600 346.439,241.748 340.400,244.789 340.400 C 245.429 340.400,246.064 340.220,246.200 340.000 C 246.521 339.481,248.679 339.481,249.000 340.000 C 249.136 340.220,250.036 340.400,251.000 340.400 C 251.964 340.400,252.864 340.580,253.000 340.800 C 253.136 341.020,253.766 341.200,254.400 341.200 C 255.034 341.200,255.664 341.380,255.800 341.600 C 255.936 341.820,256.656 342.000,257.400 342.000 C 258.144 342.000,258.864 342.180,259.000 342.400 C 259.136 342.620,259.867 342.800,260.624 342.800 C 261.381 342.800,262.000 342.980,262.000 343.200 C 262.000 343.420,262.709 343.600,263.576 343.600 C 264.443 343.600,265.252 343.760,265.373 343.956 C 265.581 344.292,266.076 344.415,269.704 345.033 C 270.531 345.173,271.306 345.449,271.427 345.644 C 271.548 345.840,272.117 346.000,272.691 346.000 C 273.666 346.000,280.919 347.712,286.200 349.190 C 286.860 349.375,288.390 349.742,289.600 350.005 C 290.810 350.269,292.113 350.646,292.495 350.843 C 292.877 351.039,293.721 351.200,294.371 351.200 C 295.021 351.200,295.664 351.380,295.800 351.600 C 295.936 351.820,296.656 352.000,297.400 352.000 C 298.144 352.000,298.864 352.180,299.000 352.400 C 299.136 352.620,299.766 352.800,300.400 352.800 C 301.034 352.800,301.664 352.980,301.800 353.200 C 301.936 353.420,302.656 353.600,303.400 353.600 C 304.144 353.600,304.864 353.780,305.000 354.000 C 305.136 354.220,305.856 354.400,306.600 354.400 C 307.344 354.400,308.064 354.580,308.200 354.800 C 308.336 355.020,309.067 355.200,309.824 355.200 C 310.581 355.200,311.200 355.380,311.200 355.600 C 311.200 355.820,311.819 356.000,312.576 356.000 C 313.333 356.000,314.064 356.180,314.200 356.400 C 314.336 356.620,315.056 356.800,315.800 356.800 C 316.544 356.800,317.264 356.980,317.400 357.200 C 317.536 357.420,318.256 357.600,319.000 357.600 C 319.744 357.600,320.464 357.780,320.600 358.000 C 320.736 358.220,321.467 358.400,322.224 358.400 C 322.981 358.400,323.600 358.580,323.600 358.800 C 323.600 359.020,324.219 359.200,324.976 359.200 C 325.733 359.200,326.464 359.380,326.600 359.600 C 326.736 359.820,327.456 360.000,328.200 360.000 C 328.944 360.000,329.664 360.180,329.800 360.400 C 329.936 360.620,330.656 360.800,331.400 360.800 C 332.144 360.800,332.852 360.960,332.973 361.156 C 333.094 361.351,333.779 361.608,334.496 361.726 C 336.730 362.092,339.674 362.747,343.000 363.617 C 346.119 364.433,347.628 364.815,350.700 365.567 C 353.556 366.266,355.805 366.856,357.028 367.227 C 357.704 367.432,358.638 367.600,359.105 367.600 C 359.571 367.600,360.064 367.780,360.200 368.000 C 360.336 368.220,361.056 368.400,361.800 368.400 C 362.544 368.400,363.264 368.580,363.400 368.800 C 363.536 369.020,364.256 369.200,365.000 369.200 C 365.744 369.200,366.464 369.380,366.600 369.600 C 366.736 369.820,367.467 370.000,368.224 370.000 C 368.981 370.000,369.600 370.180,369.600 370.400 C 369.600 370.620,370.219 370.800,370.976 370.800 C 371.733 370.800,372.464 370.980,372.600 371.200 C 372.736 371.420,373.456 371.600,374.200 371.600 C 374.944 371.600,375.664 371.780,375.800 372.000 C 375.936 372.220,376.656 372.400,377.400 372.400 C 378.144 372.400,378.864 372.580,379.000 372.800 C 379.136 373.020,379.856 373.200,380.600 373.200 C 381.344 373.200,382.064 373.380,382.200 373.600 C 382.336 373.820,382.966 374.000,383.600 374.000 C 384.234 374.000,384.864 374.180,385.000 374.400 C 385.136 374.620,385.831 374.800,386.544 374.800 C 387.257 374.800,388.011 374.957,388.220 375.148 C 388.429 375.339,389.294 375.601,390.143 375.730 L 391.685 375.964 391.417 374.082 C 391.163 372.303,390.948 371.421,390.000 368.272 C 389.780 367.541,389.600 366.551,389.600 366.072 C 389.600 365.592,389.420 365.200,389.200 365.200 C 388.980 365.200,388.800 364.581,388.800 363.824 C 388.800 363.067,388.620 362.336,388.400 362.200 C 388.180 362.064,388.000 361.333,388.000 360.576 C 388.000 359.819,387.820 359.200,387.600 359.200 C 387.380 359.200,387.200 358.480,387.200 357.600 C 387.200 356.720,387.020 356.000,386.800 356.000 C 386.580 356.000,386.400 355.381,386.400 354.624 C 386.400 353.867,386.254 353.157,386.076 353.047 C 385.898 352.937,385.504 351.656,385.200 350.200 C 384.896 348.744,384.502 347.463,384.324 347.353 C 384.146 347.243,384.000 346.443,384.000 345.576 C 384.000 344.709,383.820 344.000,383.600 344.000 C 383.380 344.000,383.200 343.370,383.200 342.600 C 383.200 341.830,383.020 341.200,382.800 341.200 C 382.580 341.200,382.400 340.480,382.400 339.600 C 382.400 338.720,382.220 338.000,382.000 338.000 C 381.780 338.000,381.600 337.280,381.600 336.400 C 381.600 335.520,381.420 334.800,381.200 334.800 C 380.980 334.800,380.800 334.260,380.800 333.600 C 380.800 332.940,380.662 332.400,380.494 332.400 C 380.326 332.400,379.893 331.717,379.531 330.881 C 378.894 329.411,376.765 326.800,376.203 326.800 C 376.051 326.800,375.472 326.442,374.916 326.005 C 374.361 325.568,373.747 325.309,373.553 325.429 C 373.359 325.549,373.200 325.457,373.200 325.224 C 373.200 324.991,372.966 324.800,372.680 324.800 C 371.944 324.800,370.007 323.859,370.003 323.500 C 370.001 323.335,369.748 323.200,369.441 323.200 C 369.133 323.200,367.855 322.660,366.600 322.000 C 365.345 321.340,363.977 320.800,363.559 320.800 C 363.142 320.800,362.800 320.620,362.800 320.400 C 362.800 320.180,362.440 320.000,362.000 320.000 C 361.560 320.000,361.200 319.820,361.200 319.600 C 361.200 319.380,360.840 319.200,360.400 319.200 C 359.960 319.200,359.600 319.020,359.600 318.800 C 359.600 318.580,359.251 318.400,358.824 318.400 C 358.397 318.400,357.936 318.220,357.800 318.000 C 357.664 317.780,357.203 317.600,356.776 317.600 C 356.349 317.600,356.000 317.420,356.000 317.200 C 356.000 316.980,355.651 316.800,355.224 316.800 C 354.797 316.800,354.336 316.620,354.200 316.400 C 354.064 316.180,353.609 316.000,353.189 316.000 C 352.768 316.000,351.783 315.640,351.000 315.200 C 350.217 314.760,349.317 314.400,349.000 314.400 C 348.683 314.400,347.783 314.040,347.000 313.600 C 346.217 313.160,345.232 312.800,344.811 312.800 C 344.391 312.800,343.936 312.620,343.800 312.400 C 343.664 312.180,343.113 312.000,342.576 312.000 C 342.039 312.000,341.600 311.820,341.600 311.600 C 341.600 311.380,341.262 311.200,340.849 311.200 C 340.436 311.200,339.401 310.909,338.549 310.553 C 337.697 310.197,336.953 309.931,336.896 309.961 C 336.839 309.991,336.296 309.760,335.691 309.447 C 335.085 309.134,333.737 308.750,332.695 308.593 C 331.653 308.437,330.800 308.150,330.800 307.955 C 330.800 307.760,330.260 307.600,329.600 307.600 C 328.940 307.600,328.400 307.420,328.400 307.200 C 328.400 306.980,327.680 306.800,326.800 306.800 C 325.920 306.800,325.200 306.620,325.200 306.400 C 325.200 306.180,324.750 306.000,324.200 306.000 C 323.650 306.000,323.200 305.820,323.200 305.600 C 323.200 305.380,322.671 305.200,322.024 305.200 C 321.377 305.200,320.736 305.020,320.600 304.800 C 320.464 304.580,319.744 304.400,319.000 304.400 C 318.256 304.400,317.536 304.220,317.400 304.000 C 317.264 303.780,316.533 303.600,315.776 303.600 C 315.019 303.600,314.400 303.420,314.400 303.200 C 314.400 302.980,313.871 302.800,313.224 302.800 C 312.577 302.800,311.936 302.620,311.800 302.400 C 311.664 302.180,310.854 302.000,310.000 302.000 C 309.146 302.000,308.336 301.820,308.200 301.600 C 308.064 301.380,307.333 301.200,306.576 301.200 C 305.819 301.200,305.200 301.020,305.200 300.800 C 305.200 300.580,304.300 300.400,303.200 300.400 C 302.100 300.400,301.200 300.220,301.200 300.000 C 301.200 299.780,300.401 299.600,299.424 299.600 C 298.447 299.600,297.536 299.420,297.400 299.200 C 297.264 298.980,296.263 298.800,295.176 298.800 C 294.089 298.800,293.200 298.651,293.200 298.468 C 293.200 298.286,292.170 298.095,290.912 298.044 C 289.653 297.993,288.438 297.809,288.212 297.635 C 287.985 297.461,286.630 297.278,285.200 297.230 C 283.770 297.181,282.540 296.974,282.467 296.771 C 282.393 296.567,280.649 296.400,278.590 296.400 C 276.532 296.400,274.742 296.229,274.613 296.020 C 274.255 295.443,248.391 295.465,246.951 296.044 C 246.318 296.299,242.650 297.021,238.800 297.649 C 234.950 298.277,231.080 298.965,230.200 299.177 C 229.320 299.390,228.060 299.671,227.400 299.801 C 225.791 300.119,223.185 300.820,222.200 301.200 C 221.760 301.370,220.590 301.730,219.600 302.000 C 218.610 302.270,217.395 302.651,216.900 302.846 C 216.405 303.041,215.595 303.356,215.100 303.546 C 210.594 305.281,203.614 308.543,201.869 309.729 C 200.213 310.855,199.956 310.257,200.085 305.580 L 200.200 301.430 198.700 299.946 C 197.875 299.130,197.200 298.335,197.200 298.178 C 197.200 297.804,195.573 296.400,195.139 296.400 C 194.952 296.400,194.845 296.175,194.900 295.900 C 194.955 295.625,194.762 295.449,194.470 295.510 C 194.179 295.570,194.038 295.462,194.157 295.270 C 194.396 294.883,192.586 293.148,192.271 293.463 C 192.162 293.571,191.954 293.284,191.808 292.824 C 191.662 292.365,191.375 292.092,191.171 292.218 C 190.967 292.344,190.800 292.167,190.800 291.824 C 190.800 291.481,190.620 291.200,190.401 291.200 C 190.181 291.200,189.237 290.480,188.303 289.600 C 187.369 288.720,186.458 288.000,186.279 288.000 C 186.099 288.000,186.064 287.820,186.200 287.600 C 186.336 287.380,186.212 287.200,185.924 287.200 C 185.636 287.199,184.860 286.734,184.200 286.165 C 183.540 285.596,182.505 284.837,181.900 284.479 C 181.295 284.121,180.800 283.686,180.800 283.514 C 180.800 283.341,180.395 283.197,179.900 283.194 C 179.172 283.189,179.115 283.114,179.600 282.800 C 180.085 282.486,180.028 282.411,179.300 282.406 C 178.805 282.403,178.400 282.220,178.400 282.000 C 178.400 281.780,178.119 281.600,177.776 281.600 C 177.433 281.600,177.264 281.420,177.400 281.200 C 177.536 280.980,177.359 280.800,177.007 280.800 C 176.655 280.800,176.011 280.469,175.577 280.064 C 175.142 279.659,174.295 279.081,173.693 278.778 C 173.092 278.476,172.130 277.913,171.555 277.526 C 170.980 277.140,170.395 276.938,170.255 277.078 C 170.115 277.219,170.000 277.093,170.000 276.800 C 170.000 276.507,169.889 276.378,169.752 276.514 C 169.616 276.650,169.242 276.499,168.920 276.177 C 168.599 275.856,168.170 275.695,167.968 275.820 C 167.765 275.945,167.600 275.865,167.600 275.642 C 167.600 275.419,166.970 275.118,166.200 274.974 C 165.430 274.829,164.800 274.587,164.800 274.436 C 164.800 274.285,164.170 273.933,163.400 273.654 C 162.630 273.376,162.000 272.980,162.000 272.774 C 162.000 272.568,161.460 272.400,160.800 272.400 C 160.140 272.400,159.599 272.265,159.597 272.100 C 159.593 271.689,157.609 270.800,156.697 270.800 C 156.288 270.800,156.064 270.620,156.200 270.400 C 156.345 270.166,155.930 270.000,155.200 270.000 C 154.470 270.000,154.055 269.834,154.200 269.600 C 154.340 269.374,154.012 269.200,153.447 269.200 C 152.897 269.200,152.336 269.020,152.200 268.800 C 152.064 268.580,151.513 268.400,150.976 268.400 C 150.439 268.400,150.000 268.220,150.000 268.000 C 150.000 267.780,149.561 267.600,149.024 267.600 C 148.487 267.600,147.949 267.441,147.829 267.246 C 147.708 267.051,147.113 266.796,146.505 266.679 C 145.897 266.561,144.770 266.345,144.000 266.199 C 143.230 266.053,142.429 265.769,142.220 265.567 C 142.011 265.365,141.437 265.200,140.944 265.200 C 140.451 265.200,139.936 265.020,139.800 264.800 C 139.664 264.580,139.059 264.400,138.456 264.400 C 137.853 264.400,137.189 264.238,136.980 264.041 C 136.771 263.844,135.880 263.589,135.000 263.475 C 132.024 263.092,130.201 262.712,130.000 262.436 C 129.890 262.285,128.990 262.108,128.000 262.044 C 127.010 261.980,126.020 261.784,125.800 261.609 C 125.580 261.435,124.514 261.277,123.432 261.259 C 122.349 261.241,121.359 261.067,121.232 260.872 C 121.104 260.677,120.190 260.515,119.200 260.512 C 115.965 260.502,115.150 260.405,115.365 260.057 C 115.482 259.868,114.316 259.700,112.774 259.683 C 111.232 259.666,109.393 259.474,108.686 259.256 C 107.978 259.038,105.722 258.898,103.671 258.945 C 101.620 258.992,99.855 258.889,99.748 258.715 C 99.481 258.284,66.800 258.313,66.800 258.745 " stroke="none" fill="#ede9f7" fill-rule="evenodd"></path><path id="path5" d="M303.419 106.369 C 303.273 106.606,302.758 106.804,302.276 106.809 C 301.794 106.814,300.950 107.170,300.400 107.600 C 299.850 108.030,299.167 108.386,298.882 108.391 C 298.259 108.402,296.400 110.192,296.400 110.782 C 296.400 111.012,296.220 111.200,296.000 111.200 C 295.780 111.200,295.636 111.335,295.681 111.500 C 295.725 111.665,295.365 112.558,294.881 113.484 C 292.585 117.873,295.494 128.400,299.002 128.400 C 299.263 128.400,299.802 128.760,300.200 129.200 C 300.654 129.702,301.432 130.000,302.286 130.000 C 303.034 130.000,303.547 130.163,303.424 130.362 C 303.297 130.566,304.593 130.724,306.400 130.724 C 308.160 130.724,309.600 130.561,309.600 130.362 C 309.600 130.163,310.005 129.997,310.500 129.993 C 311.321 129.986,316.127 126.794,315.804 126.470 C 315.727 126.394,316.042 125.897,316.504 125.367 C 318.117 123.511,319.488 113.280,318.000 114.200 C 317.780 114.336,317.600 114.074,317.600 113.618 C 317.600 112.201,313.889 107.577,313.258 108.209 C 313.161 108.306,312.793 108.055,312.441 107.651 C 311.421 106.482,304.001 105.427,303.419 106.369 M300.400 258.800 C 300.400 259.064,299.198 259.167,297.100 259.082 C 295.285 259.010,293.051 259.088,292.137 259.256 C 291.222 259.424,289.242 259.648,287.737 259.753 C 286.231 259.858,284.370 260.044,283.600 260.166 C 282.830 260.287,281.390 260.491,280.400 260.618 C 279.410 260.745,277.610 261.025,276.400 261.240 C 275.190 261.455,273.480 261.724,272.600 261.838 C 271.720 261.952,270.640 262.203,270.200 262.395 C 269.404 262.744,267.959 263.047,265.097 263.465 C 264.271 263.586,263.495 263.845,263.374 264.042 C 263.252 264.239,262.544 264.400,261.800 264.400 C 261.056 264.400,260.336 264.580,260.200 264.800 C 260.064 265.020,259.524 265.200,259.000 265.200 C 258.476 265.200,257.936 265.380,257.800 265.600 C 257.664 265.820,257.034 266.000,256.400 266.000 C 255.766 266.000,255.136 266.180,255.000 266.400 C 254.864 266.620,254.313 266.800,253.776 266.800 C 253.239 266.800,252.800 266.980,252.800 267.200 C 252.800 267.420,252.437 267.600,251.994 267.600 C 250.867 267.600,248.000 268.531,248.000 268.897 C 248.000 269.064,247.449 269.200,246.776 269.200 C 246.063 269.200,245.656 269.367,245.800 269.600 C 246.010 269.940,244.891 270.204,243.900 270.047 C 243.735 270.021,243.600 270.180,243.600 270.400 C 243.600 270.620,243.240 270.800,242.800 270.800 C 242.360 270.800,242.000 270.980,242.000 271.200 C 242.000 271.420,241.640 271.600,241.200 271.600 C 240.760 271.600,240.400 271.780,240.400 272.000 C 240.400 272.220,239.860 272.400,239.200 272.400 C 238.540 272.400,237.999 272.535,237.997 272.700 C 237.993 273.065,236.051 274.000,235.297 274.000 C 234.998 274.000,234.864 274.180,235.000 274.400 C 235.140 274.627,234.804 274.800,234.224 274.800 C 233.661 274.800,233.200 274.959,233.200 275.153 C 233.200 275.497,231.704 276.130,231.100 276.043 C 230.935 276.019,230.800 276.191,230.800 276.424 C 230.800 276.657,230.620 276.736,230.400 276.600 C 230.180 276.464,230.000 276.509,230.000 276.699 C 230.000 276.890,229.235 277.381,228.300 277.790 C 227.365 278.199,226.309 278.863,225.953 279.267 C 225.597 279.670,225.012 280.000,224.653 280.000 C 224.294 280.000,224.000 280.180,224.000 280.400 C 224.000 280.620,223.764 280.800,223.475 280.800 C 223.187 280.800,222.602 281.122,222.175 281.517 C 221.156 282.459,217.434 285.006,217.279 284.868 C 217.212 284.809,216.672 285.265,216.079 285.882 C 215.486 286.498,214.312 287.516,213.470 288.144 C 212.629 288.772,211.330 289.897,210.584 290.643 C 209.837 291.389,209.118 292.000,208.985 292.000 C 208.533 292.000,207.637 293.103,207.886 293.352 C 208.022 293.489,207.833 293.600,207.467 293.600 C 207.100 293.600,206.800 293.870,206.800 294.200 C 206.800 294.530,206.519 294.800,206.176 294.800 C 205.833 294.800,205.656 294.967,205.782 295.171 C 205.908 295.375,205.649 295.657,205.206 295.798 C 204.763 295.939,204.400 296.178,204.400 296.329 C 204.400 296.480,203.719 297.328,202.886 298.211 C 200.074 301.197,200.000 301.394,200.000 305.865 C 200.000 310.340,200.244 310.832,201.903 309.706 C 203.625 308.536,211.334 304.943,215.000 303.600 C 215.440 303.439,216.250 303.123,216.800 302.899 C 217.350 302.675,218.610 302.270,219.600 302.000 C 220.590 301.730,221.760 301.370,222.200 301.200 C 223.185 300.820,225.791 300.119,227.400 299.801 C 228.060 299.671,229.320 299.390,230.200 299.177 C 231.080 298.965,234.950 298.259,238.800 297.609 C 246.430 296.322,249.600 295.588,249.600 295.109 C 249.600 294.939,249.960 294.800,250.400 294.800 C 250.840 294.800,251.200 294.620,251.200 294.400 C 251.200 294.180,251.524 294.000,251.920 294.000 C 252.814 294.000,254.793 293.106,254.797 292.700 C 254.799 292.535,255.340 292.400,256.000 292.400 C 256.660 292.400,257.200 292.240,257.200 292.044 C 257.200 291.848,257.785 291.598,258.500 291.488 C 260.185 291.230,261.011 291.012,263.200 290.243 C 264.190 289.896,265.294 289.609,265.654 289.606 C 266.014 289.603,266.802 289.344,267.404 289.032 C 268.007 288.719,268.714 288.546,268.976 288.646 C 269.238 288.747,269.958 288.567,270.576 288.246 C 271.194 287.926,271.947 287.758,272.250 287.874 C 272.552 287.991,272.800 287.886,272.800 287.643 C 272.800 287.379,273.596 287.200,274.767 287.200 C 275.848 287.200,276.793 287.035,276.867 286.833 C 276.940 286.631,277.900 286.421,279.000 286.366 C 280.100 286.311,281.193 286.121,281.429 285.943 C 281.665 285.765,282.797 285.586,283.945 285.546 C 285.093 285.505,286.125 285.321,286.240 285.136 C 286.354 284.951,287.787 284.800,289.424 284.800 C 291.061 284.800,292.400 284.631,292.400 284.425 C 292.400 283.615,330.157 282.797,330.950 283.590 C 331.500 284.140,332.519 284.115,332.175 283.560 C 331.978 283.240,332.128 283.240,332.725 283.560 C 333.178 283.802,335.460 284.000,337.797 284.000 C 340.135 284.000,341.951 284.156,341.832 284.347 C 341.714 284.539,343.098 284.726,344.907 284.765 C 346.715 284.804,348.367 285.007,348.578 285.218 C 348.788 285.428,350.173 285.600,351.656 285.600 C 353.139 285.600,354.464 285.780,354.600 286.000 C 354.736 286.220,355.827 286.400,357.024 286.400 C 358.221 286.400,359.200 286.580,359.200 286.800 C 359.200 288.152,367.789 286.668,369.423 285.034 C 369.776 284.681,370.230 284.495,370.432 284.620 C 370.635 284.745,370.801 284.702,370.802 284.524 C 370.803 284.346,371.308 283.660,371.924 283.000 C 372.934 281.917,373.847 280.290,373.526 280.142 C 373.457 280.110,373.708 279.743,374.085 279.327 C 374.947 278.374,374.958 270.385,374.098 270.099 C 373.821 270.007,373.685 269.786,373.795 269.607 C 374.038 269.214,373.007 267.126,372.714 267.419 C 372.601 267.533,372.292 267.104,372.027 266.466 C 371.763 265.829,371.064 265.058,370.474 264.754 C 369.883 264.450,369.309 264.082,369.199 263.936 C 368.755 263.354,364.509 262.000,363.124 262.000 C 362.312 262.000,361.555 261.851,361.443 261.669 C 361.330 261.487,360.205 261.297,358.943 261.246 C 357.680 261.194,356.456 261.034,356.224 260.889 C 355.991 260.745,354.900 260.576,353.800 260.515 C 352.700 260.453,350.990 260.286,350.000 260.142 C 349.010 259.999,347.750 259.847,347.200 259.804 C 346.650 259.761,344.670 259.573,342.800 259.385 C 340.930 259.198,338.005 259.072,336.300 259.105 C 334.595 259.138,333.200 259.000,333.200 258.799 C 333.200 258.584,326.440 258.423,316.800 258.409 C 305.724 258.393,300.400 258.520,300.400 258.800 " stroke="none" fill="#bcbcdc" fill-rule="evenodd"></path><path id="path6" d="M154.800 341.200 C 155.130 341.413,155.670 341.588,156.000 341.588 C 156.533 341.588,156.533 341.545,156.000 341.200 C 155.670 340.987,155.130 340.812,154.800 340.812 C 154.267 340.812,154.267 340.855,154.800 341.200 M142.200 342.800 C 141.429 343.131,141.431 343.145,142.276 343.172 C 142.758 343.187,143.264 343.020,143.400 342.800 C 143.692 342.327,143.301 342.327,142.200 342.800 M139.000 343.600 C 138.229 343.931,138.231 343.945,139.076 343.972 C 139.558 343.987,140.064 343.820,140.200 343.600 C 140.492 343.127,140.101 343.127,139.000 343.600 M160.741 344.700 C 161.471 345.635,162.154 346.400,162.261 346.400 C 162.573 346.400,160.903 344.181,160.126 343.564 C 159.735 343.254,160.012 343.765,160.741 344.700 M136.000 344.400 C 135.176 344.664,135.141 344.726,135.800 344.754 C 136.240 344.773,136.870 344.613,137.200 344.400 C 137.901 343.947,137.414 343.947,136.000 344.400 M132.800 345.200 C 131.976 345.464,131.941 345.526,132.600 345.554 C 133.040 345.573,133.670 345.413,134.000 345.200 C 134.701 344.747,134.214 344.747,132.800 345.200 M129.600 346.000 C 128.776 346.264,128.741 346.326,129.400 346.354 C 129.840 346.373,130.470 346.213,130.800 346.000 C 131.501 345.547,131.014 345.547,129.600 346.000 M126.400 346.800 C 125.576 347.064,125.541 347.126,126.200 347.154 C 126.640 347.173,127.270 347.013,127.600 346.800 C 128.301 346.347,127.814 346.347,126.400 346.800 M123.400 347.600 C 122.293 347.882,122.277 347.909,123.200 347.947 C 123.750 347.969,124.470 347.813,124.800 347.600 C 125.481 347.160,125.129 347.160,123.400 347.600 M120.200 348.400 C 119.093 348.682,119.077 348.709,120.000 348.747 C 120.550 348.769,121.270 348.613,121.600 348.400 C 122.281 347.960,121.929 347.960,120.200 348.400 M116.880 349.195 C 116.154 349.367,115.447 349.620,115.309 349.758 C 114.971 350.096,117.644 349.576,118.400 349.157 C 119.116 348.760,118.668 348.771,116.880 349.195 M112.400 350.418 C 111.962 350.715,112.124 350.752,113.000 350.556 C 114.471 350.227,114.790 349.998,113.767 350.006 C 113.345 350.009,112.730 350.195,112.400 350.418 M109.200 351.206 C 108.778 351.482,109.015 351.523,110.000 351.342 C 111.725 351.025,112.051 350.798,110.767 350.806 C 110.235 350.809,109.530 350.989,109.200 351.206 M103.000 352.800 C 102.496 353.017,102.422 353.144,102.800 353.144 C 103.130 353.144,103.760 352.989,104.200 352.800 C 104.704 352.583,104.778 352.456,104.400 352.456 C 104.070 352.456,103.440 352.611,103.000 352.800 M99.800 353.600 C 99.296 353.817,99.222 353.944,99.600 353.944 C 99.930 353.944,100.560 353.789,101.000 353.600 C 101.504 353.383,101.578 353.256,101.200 353.256 C 100.870 353.256,100.240 353.411,99.800 353.600 M96.400 354.400 C 95.867 354.745,95.867 354.788,96.400 354.788 C 96.730 354.788,97.270 354.613,97.600 354.400 C 98.133 354.055,98.133 354.012,97.600 354.012 C 97.270 354.012,96.730 354.187,96.400 354.400 M166.802 357.033 C 166.803 357.235,167.268 357.940,167.835 358.600 L 168.866 359.800 167.963 358.400 C 166.804 356.604,166.800 356.599,166.802 357.033 M77.800 359.200 C 77.029 359.531,77.031 359.545,77.876 359.572 C 78.358 359.587,78.864 359.420,79.000 359.200 C 79.292 358.727,78.901 358.727,77.800 359.200 M74.600 360.000 C 73.829 360.331,73.831 360.345,74.676 360.372 C 75.158 360.387,75.664 360.220,75.800 360.000 C 76.092 359.527,75.701 359.527,74.600 360.000 M169.899 361.400 C 170.579 362.280,172.091 363.900,173.258 365.000 C 174.977 366.619,174.854 366.428,172.615 364.000 C 168.833 359.897,168.468 359.548,169.899 361.400 M71.400 360.800 C 70.629 361.131,70.631 361.145,71.476 361.172 C 71.958 361.187,72.464 361.020,72.600 360.800 C 72.892 360.327,72.501 360.327,71.400 360.800 M65.000 362.400 C 63.893 362.682,63.877 362.709,64.800 362.747 C 65.350 362.769,66.070 362.613,66.400 362.400 C 67.081 361.960,66.729 361.960,65.000 362.400 M62.000 363.200 C 61.176 363.464,61.141 363.526,61.800 363.554 C 62.240 363.573,62.870 363.413,63.200 363.200 C 63.901 362.747,63.414 362.747,62.000 363.200 M58.800 364.000 L 57.800 364.320 58.876 364.360 C 59.468 364.382,60.064 364.220,60.200 364.000 C 60.481 363.545,60.220 363.545,58.800 364.000 M55.600 364.800 C 54.776 365.064,54.741 365.126,55.400 365.154 C 55.840 365.173,56.470 365.013,56.800 364.800 C 57.501 364.347,57.014 364.347,55.600 364.800 M52.600 365.600 C 51.493 365.882,51.477 365.909,52.400 365.947 C 52.950 365.969,53.670 365.813,54.000 365.600 C 54.681 365.160,54.329 365.160,52.600 365.600 M49.400 366.400 C 48.293 366.682,48.277 366.709,49.200 366.747 C 49.750 366.769,50.470 366.613,50.800 366.400 C 51.481 365.960,51.129 365.960,49.400 366.400 M176.024 367.429 C 176.707 368.252,179.736 370.260,181.733 371.213 C 182.650 371.651,183.055 371.782,182.634 371.504 C 176.754 367.633,175.606 366.925,176.024 367.429 M43.474 367.825 C 42.414 368.114,41.334 368.446,41.074 368.562 C 40.229 368.939,43.593 368.318,45.322 367.778 C 47.492 367.100,45.992 367.138,43.474 367.825 M35.200 370.018 C 34.762 370.315,34.924 370.352,35.800 370.156 C 37.271 369.827,37.590 369.598,36.567 369.606 C 36.145 369.609,35.530 369.795,35.200 370.018 M32.200 370.800 C 31.696 371.017,31.622 371.144,32.000 371.144 C 32.330 371.144,32.960 370.989,33.400 370.800 C 33.904 370.583,33.978 370.456,33.600 370.456 C 33.270 370.456,32.640 370.611,32.200 370.800 M28.800 371.600 C 28.267 371.945,28.267 371.988,28.800 371.988 C 29.130 371.988,29.670 371.813,30.000 371.600 C 30.533 371.255,30.533 371.212,30.000 371.212 C 29.670 371.212,29.130 371.387,28.800 371.600 M19.400 374.000 C 18.629 374.331,18.631 374.345,19.476 374.372 C 19.958 374.387,20.464 374.220,20.600 374.000 C 20.892 373.527,20.501 373.527,19.400 374.000 M16.200 374.800 C 15.429 375.131,15.431 375.145,16.276 375.172 C 16.758 375.187,17.264 375.020,17.400 374.800 C 17.692 374.327,17.301 374.327,16.200 374.800 M191.200 374.800 C 191.530 375.013,192.250 375.173,192.800 375.154 L 193.800 375.120 192.800 374.800 C 191.258 374.306,190.436 374.306,191.200 374.800 M202.905 375.087 C 203.514 375.179,204.414 375.177,204.905 375.082 C 205.397 374.987,204.900 374.911,203.800 374.914 C 202.700 374.917,202.297 374.995,202.905 375.087 M13.000 375.600 C 12.229 375.931,12.231 375.945,13.076 375.972 C 13.558 375.987,14.064 375.820,14.200 375.600 C 14.492 375.127,14.101 375.127,13.000 375.600 M196.200 375.593 C 197.200 376.032,199.491 376.101,199.735 375.700 C 199.835 375.535,198.900 375.364,197.658 375.321 C 196.075 375.265,195.639 375.346,196.200 375.593 " stroke="none" fill="#c7a09a" fill-rule="evenodd"></path><path id="path7" d="M298.600 258.800 L 297.000 259.086 298.700 259.143 C 299.635 259.174,300.400 259.020,300.400 258.800 C 300.400 258.580,300.355 258.426,300.300 258.457 C 300.245 258.488,299.480 258.642,298.600 258.800 M333.905 259.083 C 334.402 259.179,335.122 259.175,335.505 259.075 C 335.887 258.975,335.480 258.896,334.600 258.901 C 333.720 258.905,333.407 258.987,333.905 259.083 M246.256 339.909 C 246.151 340.079,246.756 340.218,247.600 340.218 C 248.444 340.218,249.049 340.079,248.944 339.909 C 248.839 339.739,248.234 339.600,247.600 339.600 C 246.966 339.600,246.361 339.739,246.256 339.909 M148.421 340.779 C 148.046 341.016,148.470 341.065,149.621 340.918 C 150.599 340.792,151.475 340.625,151.567 340.545 C 151.942 340.219,148.955 340.440,148.421 340.779 M154.400 340.791 C 155.170 340.955,156.295 341.290,156.900 341.535 C 157.505 341.780,158.000 341.897,158.000 341.795 C 158.000 341.408,155.055 340.402,154.051 340.446 C 153.163 340.485,153.217 340.538,154.400 340.791 M145.200 341.606 C 144.778 341.882,145.015 341.923,146.000 341.742 C 147.725 341.425,148.051 341.198,146.767 341.206 C 146.235 341.209,145.530 341.389,145.200 341.606 M142.000 342.418 C 141.562 342.715,141.724 342.752,142.600 342.556 C 144.071 342.227,144.390 341.998,143.367 342.006 C 142.945 342.009,142.330 342.195,142.000 342.418 M160.413 343.936 C 161.678 345.249,162.641 346.795,163.404 348.738 C 164.022 350.315,164.598 351.536,164.682 351.451 C 165.462 350.671,160.099 342.000,158.836 342.000 C 158.677 342.000,159.387 342.871,160.413 343.936 M138.800 343.200 C 138.036 343.694,138.858 343.694,140.400 343.200 L 141.400 342.880 140.400 342.846 C 139.850 342.827,139.130 342.987,138.800 343.200 M129.600 345.618 C 129.162 345.915,129.324 345.952,130.200 345.756 C 131.671 345.427,131.990 345.198,130.967 345.206 C 130.545 345.209,129.930 345.395,129.600 345.618 M123.400 347.200 C 122.896 347.417,122.822 347.544,123.200 347.544 C 123.530 347.544,124.160 347.389,124.600 347.200 C 125.104 346.983,125.178 346.856,124.800 346.856 C 124.470 346.856,123.840 347.011,123.400 347.200 M120.200 348.000 C 119.696 348.217,119.622 348.344,120.000 348.344 C 120.330 348.344,120.960 348.189,121.400 348.000 C 121.904 347.783,121.978 347.656,121.600 347.656 C 121.270 347.656,120.640 347.811,120.200 348.000 M117.000 348.800 C 116.496 349.017,116.422 349.144,116.800 349.144 C 117.130 349.144,117.760 348.989,118.200 348.800 C 118.704 348.583,118.778 348.456,118.400 348.456 C 118.070 348.456,117.440 348.611,117.000 348.800 M110.600 350.400 L 109.800 350.744 110.600 350.766 C 111.040 350.778,111.670 350.613,112.000 350.400 C 112.795 349.886,111.796 349.886,110.600 350.400 M234.629 351.661 C 234.283 352.355,234.001 353.120,234.002 353.361 C 234.005 353.803,234.814 352.402,235.309 351.100 C 235.749 349.943,235.303 350.311,234.629 351.661 M107.600 351.200 C 106.776 351.464,106.741 351.526,107.400 351.554 C 107.840 351.573,108.470 351.413,108.800 351.200 C 109.501 350.747,109.014 350.747,107.600 351.200 M104.400 352.000 C 103.596 352.257,103.557 352.323,104.200 352.332 C 104.640 352.338,105.360 352.189,105.800 352.000 C 106.819 351.562,105.768 351.562,104.400 352.000 M101.200 352.800 C 100.396 353.057,100.357 353.123,101.000 353.132 C 101.440 353.138,102.160 352.989,102.600 352.800 C 103.619 352.362,102.568 352.362,101.200 352.800 M98.000 353.600 C 97.196 353.857,97.157 353.923,97.800 353.932 C 98.240 353.938,98.960 353.789,99.400 353.600 C 100.419 353.162,99.368 353.162,98.000 353.600 M94.800 354.400 C 93.976 354.664,93.941 354.726,94.600 354.754 C 95.040 354.773,95.670 354.613,96.000 354.400 C 96.701 353.947,96.214 353.947,94.800 354.400 M89.074 355.825 C 88.014 356.114,86.934 356.446,86.674 356.562 C 85.829 356.939,89.193 356.318,90.922 355.778 C 93.092 355.100,91.592 355.138,89.074 355.825 M84.000 357.218 C 83.562 357.515,83.724 357.552,84.600 357.356 C 86.071 357.027,86.390 356.798,85.367 356.806 C 84.945 356.809,84.330 356.995,84.000 357.218 M80.800 358.006 C 80.378 358.282,80.615 358.323,81.600 358.142 C 83.325 357.825,83.651 357.598,82.367 357.606 C 81.835 357.609,81.130 357.789,80.800 358.006 M77.600 358.818 C 77.162 359.115,77.324 359.152,78.200 358.956 C 79.671 358.627,79.990 358.398,78.967 358.406 C 78.545 358.409,77.930 358.595,77.600 358.818 M74.400 359.618 C 73.962 359.915,74.124 359.952,75.000 359.756 C 76.471 359.427,76.790 359.198,75.767 359.206 C 75.345 359.209,74.730 359.395,74.400 359.618 M68.200 361.200 C 67.908 361.673,68.299 361.673,69.400 361.200 C 70.171 360.869,70.169 360.855,69.324 360.828 C 68.842 360.813,68.336 360.980,68.200 361.200 M172.996 364.396 C 173.626 365.054,174.211 365.523,174.295 365.438 C 174.480 365.253,172.472 363.200,172.107 363.200 C 171.966 363.200,172.366 363.738,172.996 364.396 M55.600 364.418 C 55.162 364.715,55.324 364.752,56.200 364.556 C 57.671 364.227,57.990 363.998,56.967 364.006 C 56.545 364.009,55.930 364.195,55.600 364.418 M49.400 366.000 C 48.896 366.217,48.822 366.344,49.200 366.344 C 49.530 366.344,50.160 366.189,50.600 366.000 C 51.104 365.783,51.178 365.656,50.800 365.656 C 50.470 365.656,49.840 365.811,49.400 366.000 M46.200 366.800 C 45.696 367.017,45.622 367.144,46.000 367.144 C 46.330 367.144,46.960 366.989,47.400 366.800 C 47.904 366.583,47.978 366.456,47.600 366.456 C 47.270 366.456,46.640 366.611,46.200 366.800 M175.744 366.709 C 176.060 367.221,178.400 368.953,178.400 368.675 C 178.400 368.576,177.739 367.991,176.932 367.375 C 176.124 366.759,175.589 366.459,175.744 366.709 M43.000 367.600 C 42.496 367.817,42.422 367.944,42.800 367.944 C 43.130 367.944,43.760 367.789,44.200 367.600 C 44.704 367.383,44.778 367.256,44.400 367.256 C 44.070 367.256,43.440 367.411,43.000 367.600 M39.800 368.400 C 39.296 368.617,39.222 368.744,39.600 368.744 C 39.930 368.744,40.560 368.589,41.000 368.400 C 41.504 368.183,41.578 368.056,41.200 368.056 C 40.870 368.056,40.240 368.211,39.800 368.400 M36.600 369.200 C 35.493 369.482,35.477 369.509,36.400 369.547 C 36.950 369.569,37.670 369.413,38.000 369.200 C 38.681 368.760,38.329 368.760,36.600 369.200 M179.600 369.564 C 180.150 370.014,180.780 370.383,181.000 370.385 C 181.428 370.388,180.705 369.834,179.400 369.160 C 178.869 368.885,178.936 369.021,179.600 369.564 M33.600 370.000 C 32.776 370.264,32.741 370.326,33.400 370.354 C 33.840 370.373,34.470 370.213,34.800 370.000 C 35.501 369.547,35.014 369.547,33.600 370.000 M27.301 371.497 C 25.047 372.068,23.279 372.612,23.372 372.705 C 23.546 372.879,32.064 370.846,32.367 370.558 C 32.718 370.225,31.254 370.496,27.301 371.497 M181.600 370.596 C 181.600 370.870,184.049 372.084,184.232 371.901 C 184.319 371.814,183.762 371.444,182.995 371.078 C 182.228 370.712,181.600 370.495,181.600 370.596 M19.400 373.600 C 18.381 374.038,19.432 374.038,20.800 373.600 C 21.604 373.343,21.643 373.277,21.000 373.268 C 20.560 373.262,19.840 373.411,19.400 373.600 M187.633 373.344 C 187.725 373.423,188.340 373.608,189.000 373.756 C 189.876 373.952,190.038 373.915,189.600 373.618 C 189.060 373.253,187.232 372.998,187.633 373.344 M16.200 374.400 C 15.181 374.838,16.232 374.838,17.600 374.400 C 18.404 374.143,18.443 374.077,17.800 374.068 C 17.360 374.062,16.640 374.211,16.200 374.400 M12.800 375.200 C 12.036 375.694,12.858 375.694,14.400 375.200 L 15.400 374.880 14.400 374.846 C 13.850 374.827,13.130 374.987,12.800 375.200 M195.700 375.091 C 196.525 375.178,197.875 375.178,198.700 375.091 C 199.525 375.005,198.850 374.934,197.200 374.934 C 195.550 374.934,194.875 375.005,195.700 375.091 M9.200 376.082 C 9.200 376.465,9.853 376.435,11.200 375.990 C 12.065 375.705,11.998 375.667,10.700 375.712 C 9.875 375.740,9.200 375.907,9.200 376.082 " stroke="none" fill="#ddc5c0" fill-rule="evenodd"></path><path id="path8" d="M373.233 371.744 C 373.325 371.823,373.940 372.008,374.600 372.156 C 375.476 372.352,375.638 372.315,375.200 372.018 C 374.660 371.653,372.832 371.398,373.233 371.744 M379.633 373.344 C 379.725 373.423,380.340 373.608,381.000 373.756 C 381.876 373.952,382.038 373.915,381.600 373.618 C 381.060 373.253,379.232 372.998,379.633 373.344 " stroke="none" fill="#ccb4bc" fill-rule="evenodd"></path></g></svg>